<svg xmlns="http://www.w3.org/2000/svg" width="25" height="25"><path d="M 0 12.5 C 0 5.596 5.596 0 12.5 0 C 19.404 0 25 5.596 25 12.5 C 25 19.404 19.404 25 12.5 25 C 5.596 25 0 19.404 0 12.5 Z" fill="rgb(39,59,122)"></path><path d="M 24.749 15.005 L 18.567 8.823 L 17.771 9.925 L 16.502 8.673 L 16.551 10.042 L 17.21 10.701 L 13.547 15.235 L 10.598 12.261 L 4.016 10.812 L 8.476 15.235 L 7.065 15.235 L 3.047 16.124 L 11.908 24.986 C 12.105 24.995 12.302 25 12.5 25 C 18.546 25 23.589 20.708 24.749 15.005 Z" fill="rgb(18,17,73)"></path><path d="M 16.853 9.053 C 17.377 8.662 18.567 8.823 18.567 8.823 C 18.567 8.823 18.39 10.005 17.867 10.396 C 17.343 10.787 16.95 10.611 16.67 10.24 C 16.39 9.869 16.329 9.444 16.853 9.053 Z" fill="rgb(59,155,39)"></path><path d="M 18.567 8.823 C 18.567 8.823 18.39 10.005 17.867 10.396 C 17.343 10.787 16.95 10.611 16.67 10.24 Z" fill="rgb(46,130,26)"></path><path d="M 16.505 10.701 C 16.438 10.701 16.375 10.669 16.335 10.615 C 16.295 10.561 16.284 10.492 16.304 10.428 C 16.448 9.968 16.245 9.161 16.155 8.889 C 16.137 8.836 16.141 8.779 16.166 8.729 C 16.191 8.679 16.235 8.641 16.288 8.623 C 16.341 8.606 16.399 8.61 16.449 8.635 C 16.499 8.66 16.537 8.704 16.554 8.757 C 16.569 8.802 16.919 9.871 16.705 10.554 C 16.678 10.641 16.596 10.701 16.505 10.701 Z" fill="rgb(108,175,95)"></path><path d="M 17.983 9.813 C 17.394 9.813 16.877 10.126 16.59 10.595 C 16.304 10.126 15.787 9.813 15.198 9.813 C 14.296 9.813 13.566 10.544 13.566 11.445 C 13.566 12.346 13.972 15.285 15.198 15.252 C 15.516 15.244 15.813 15.26 16.064 15.151 C 16.406 15.003 16.798 15.022 17.143 15.165 C 17.389 15.267 17.676 15.26 17.983 15.252 C 19.23 15.219 19.615 12.346 19.615 11.445 C 19.615 10.544 18.884 9.813 17.983 9.813 Z" fill="rgb(211,89,51)"></path><path d="M 17.983 9.813 C 17.394 9.813 16.877 10.126 16.59 10.595 C 16.586 10.587 16.58 10.58 16.576 10.572 L 16.576 15.05 C 16.768 15.05 16.962 15.09 17.143 15.165 C 17.389 15.267 17.676 15.261 17.983 15.252 C 19.23 15.219 19.615 12.346 19.615 11.445 C 19.615 10.544 18.884 9.813 17.983 9.813 Z" fill="rgb(181,67,36)"></path><path d="M 9.654 14.959 C 9.654 14.959 4.989 13.969 3.432 15.467 C 1.875 16.965 5.374 15.924 5.374 15.924 C 5.374 15.924 6.324 16.651 7.314 16.318 C 8.305 15.986 9.654 14.959 9.654 14.959 Z" fill="rgb(108,175,95)"></path><path d="M 9.797 14.8 C 9.797 14.8 6.237 13.251 4.751 14.193 C 3.265 15.135 6.226 14.873 6.226 14.873 C 6.226 14.873 6.866 15.608 7.71 15.504 C 8.554 15.399 9.797 14.8 9.797 14.8 Z" fill="rgb(71,127,60)"></path><path d="M 10.374 13.511 L 18.246 15.949 L 10.085 16.124 C 9.483 16.137 8.984 15.659 8.971 15.057 L 8.961 14.576 C 8.945 13.832 9.663 13.291 10.374 13.511 Z" fill="rgb(234,162,47)"></path><path d="M 8.966 14.834 L 8.971 15.057 C 8.984 15.659 9.483 16.137 10.085 16.124 L 18.246 15.949 L 18.204 15.936 Z" fill="rgb(224,145,18)"></path><path d="M 10.379 12.512 C 10.379 12.512 6.627 9.567 4.569 10.226 C 2.511 10.884 6.111 11.492 6.111 11.492 C 6.111 11.492 6.644 12.563 7.68 12.701 C 8.715 12.838 10.379 12.512 10.379 12.512 Z" fill="rgb(108,175,95)"></path><path d="M 10.578 12.431 C 10.578 12.431 8.064 9.472 6.315 9.663 C 4.566 9.854 7.339 10.924 7.339 10.924 C 7.339 10.924 7.59 11.866 8.394 12.144 C 9.197 12.422 10.578 12.431 10.578 12.431 Z" fill="rgb(71,127,60)"></path><path d="M 11.645 11.566 L 17.638 17.223 L 10.234 13.784 C 9.688 13.531 9.451 12.882 9.704 12.336 L 9.907 11.9 C 10.22 11.225 11.103 11.055 11.645 11.566 Z" fill="rgb(254,225,135)"></path><path d="M 9.782 12.168 L 9.704 12.336 C 9.451 12.882 9.688 13.531 10.234 13.784 L 17.638 17.223 L 17.634 17.219 Z" fill="rgb(255,198,27)"></path></svg>