<svg xmlns="http://www.w3.org/2000/svg" width="25" height="25"><path d="M 22.51 10.01 L 22.51 22.373 C 22.51 23.821 21.332 25 19.883 25 L 5.118 25 C 3.669 25 2.49 23.821 2.49 22.373 L 2.49 10.01 C 2.49 9.764 2.499 9.519 2.517 9.277 C 2.674 7.112 3.523 5.136 4.844 3.569 C 4.845 3.567 4.846 3.566 4.847 3.565 C 5.162 3.191 5.504 2.841 5.87 2.517 L 5.87 2.517 C 7.466 1.103 9.515 0.19 11.768 0.027 C 12.009 0.009 12.254 0 12.5 0 C 12.746 0 12.991 0.009 13.232 0.027 C 15.489 0.19 17.541 1.106 19.137 2.522 C 19.505 2.849 19.849 3.203 20.165 3.58 C 21.481 5.145 22.326 7.117 22.483 9.277 C 22.501 9.519 22.51 9.764 22.51 10.01 Z" fill="hsl(0, 93%, 71%)"></path><path d="M 22.51 10.01 L 22.51 22.373 C 22.51 23.821 21.332 25 19.883 25 L 12.5 25 L 12.5 0 C 12.746 0 12.991 0.009 13.232 0.027 C 15.489 0.19 17.541 1.106 19.137 2.522 C 19.503 2.847 19.844 3.198 20.159 3.572 C 20.162 3.575 20.164 3.577 20.165 3.58 C 21.481 5.145 22.326 7.117 22.483 9.277 C 22.501 9.519 22.51 9.764 22.51 10.01 Z M 22.51 10.01" fill="hsl(346, 86%, 56%)"></path><path d="M 18.445 9.898 C 18.445 13.176 15.779 15.843 12.501 15.843 L 12.5 15.843 C 9.222 15.843 6.555 13.176 6.555 9.898 C 6.555 6.621 9.222 3.954 12.5 3.954 L 12.501 3.954 C 15.779 3.954 18.445 6.621 18.445 9.898 Z M 18.445 9.898" fill="rgb(255,255,255)"></path><path d="M 18.445 9.898 C 18.445 13.176 15.779 15.843 12.501 15.843 L 12.501 3.954 C 15.779 3.954 18.445 6.621 18.445 9.898 Z M 13.232 0.027 L 13.232 2.35 C 13.232 2.755 12.905 3.082 12.501 3.083 L 12.5 3.083 C 12.096 3.083 11.768 2.755 11.768 2.35 L 11.768 0.027 C 12.009 0.009 12.254 0 12.5 0 L 12.501 0 C 12.747 0 12.991 0.009 13.232 0.027 Z M 5.674 10.01 C 5.674 10.414 5.347 10.742 4.942 10.742 L 2.49 10.742 L 2.49 10.01 C 2.49 9.764 2.499 9.519 2.517 9.277 L 4.942 9.277 C 5.347 9.277 5.674 9.605 5.674 10.01 Z M 5.674 10.01" fill="rgb(241,242,242)"></path><path d="M 22.51 10.01 L 22.51 10.742 L 19.989 10.742 C 19.584 10.742 19.256 10.414 19.256 10.01 C 19.256 9.605 19.584 9.277 19.989 9.277 L 22.483 9.277 C 22.501 9.519 22.51 9.764 22.51 10.01 Z M 22.51 10.01" fill="rgb(209,212,213)"></path><path d="M 15.15 19.518 L 15.15 21.686 C 15.15 22.549 14.448 23.252 13.585 23.252 L 11.416 23.252 C 10.553 23.252 9.85 22.549 9.85 21.686 L 9.85 19.518 C 9.85 18.654 10.553 17.952 11.416 17.952 L 13.584 17.952 C 14.448 17.952 15.15 18.654 15.15 19.518 Z M 15.15 19.518" fill="rgb(255,255,255)"></path><path d="M 12.501 3.082 L 12.501 0 C 12.747 0 12.991 0.009 13.232 0.027 L 13.232 2.35 C 13.232 2.755 12.905 3.082 12.501 3.083 Z M 12.501 3.082" fill="rgb(209,212,213)"></path><path d="M 15.15 19.518 L 15.15 21.686 C 15.15 22.549 14.448 23.252 13.585 23.252 L 12.5 23.252 L 12.5 17.952 L 13.584 17.952 C 14.448 17.952 15.15 18.654 15.15 19.518 Z M 15.15 19.518" fill="rgb(241,242,242)"></path><path d="M 14.676 8.758 L 12.501 10.934 L 11.347 12.086 C 11.061 12.373 10.597 12.373 10.311 12.086 C 10.025 11.8 10.025 11.337 10.311 11.051 C 10.313 11.048 10.315 11.046 10.318 11.044 L 12.501 8.862 L 13.641 7.723 C 13.926 7.437 14.39 7.437 14.676 7.723 C 14.962 8.008 14.962 8.472 14.676 8.758 Z M 14.676 8.758" fill="rgb(209,212,213)"></path><path d="M 14.676 8.758 L 12.501 10.934 L 12.501 8.862 L 13.641 7.723 C 13.926 7.437 14.39 7.437 14.676 7.723 C 14.962 8.008 14.962 8.472 14.676 8.758 Z M 14.676 8.758" fill="rgb(189,191,193)"></path><path d="M 20.159 3.572 L 18.527 5.204 C 18.241 5.49 17.777 5.49 17.491 5.204 C 17.205 4.918 17.205 4.455 17.491 4.169 C 17.493 4.166 17.495 4.164 17.498 4.162 L 19.137 2.522 C 19.503 2.847 19.844 3.198 20.159 3.572 Z M 20.159 3.572" fill="rgb(209,212,213)"></path><path d="M 7.522 5.204 C 7.236 5.49 6.772 5.49 6.486 5.204 L 4.847 3.565 C 5.162 3.191 5.504 2.841 5.87 2.517 L 5.87 2.517 L 7.515 4.162 C 7.518 4.164 7.52 4.166 7.522 4.168 C 7.808 4.454 7.808 4.917 7.522 5.204 Z M 7.522 5.204" fill="rgb(241,242,242)"></path></svg>