<svg xmlns="http://www.w3.org/2000/svg" width="658" height="658"><path d="M 458.269 307.589 L 199.731 307.589 C 128.571 307.589 70.884 249.902 70.884 178.747 L 70.884 113.346 L 587.111 113.346 L 587.111 178.747 C 587.116 249.902 529.429 307.589 458.269 307.589 Z M 458.269 307.589" fill="rgb(217,252,255)"></path><path d="M 535.537 113.344 L 535.537 150.509 C 535.537 221.669 477.852 279.356 406.692 279.356 L 148.154 279.356 C 136.241 279.356 124.705 277.729 113.757 274.702 C 136.563 295.149 166.689 307.594 199.731 307.594 L 458.269 307.594 C 529.429 307.594 587.116 249.908 587.116 178.747 L 587.116 113.346 Z M 535.537 113.344" fill="rgb(176,222,226)"></path><path d="M 483.077 577.648 L 174.923 577.648 C 90.102 577.648 21.346 508.892 21.346 424.072 L 21.346 345.788 L 636.654 345.788 L 636.654 424.072 C 636.654 508.892 567.894 577.648 483.077 577.648 Z M 483.077 577.648" fill="rgb(217,252,255)"></path><path d="M 579.731 345.788 L 579.731 424.076 C 579.731 508.892 510.97 577.648 426.155 577.648 L 483.079 577.648 C 567.894 577.648 636.655 508.892 636.655 424.076 L 636.655 345.787 Z M 579.731 345.788" fill="rgb(176,222,226)"></path><path d="M 587.537 114.795 L 70.463 114.795 C 60.803 114.795 52.978 106.969 52.978 97.316 L 52.978 97.164 C 52.978 87.506 60.805 79.68 70.463 79.68 L 587.543 79.68 C 597.195 79.68 605.022 87.506 605.022 97.164 L 605.022 97.316 C 605.022 106.969 597.195 114.795 587.537 114.795 Z M 587.537 114.795" fill="rgb(58,76,104)" stroke-width="1.29" stroke="#D9FCFF" stroke-miterlimit="10"></path><path d="M 587.537 79.68 L 539.665 79.68 C 549.319 79.68 557.145 87.506 557.145 97.164 L 557.145 97.316 C 557.145 106.969 549.318 114.795 539.665 114.795 L 587.537 114.795 C 597.195 114.795 605.022 106.969 605.022 97.316 L 605.022 97.164 C 605.022 87.506 597.195 79.68 587.537 79.68 Z M 587.537 79.68" fill="rgb(40,52,73)"></path><path d="M 215.043 79.68 L 442.957 79.68 L 442.957 307.594 L 215.043 307.594 Z M 215.043 79.68" fill="rgb(210,179,147)"></path><path d="M 406.692 279.356 L 215.043 279.356 L 215.043 307.594 L 442.957 307.594 L 442.957 274.175 C 431.177 277.618 418.965 279.362 406.692 279.356 Z M 406.692 279.356" fill="rgb(191,153,132)"></path><path d="M 385.923 141.915 L 272.077 141.915 C 266.589 141.915 262.146 137.472 262.146 131.984 C 262.146 126.497 266.59 122.055 272.077 122.055 L 385.923 122.055 C 391.411 122.055 395.854 126.498 395.854 131.984 C 395.854 137.471 391.411 141.915 385.923 141.915 Z M 329 182.231 L 272.077 182.231 C 269.443 182.232 266.917 181.186 265.054 179.323 C 263.192 177.461 262.146 174.935 262.146 172.301 C 262.145 169.667 263.192 167.141 265.054 165.279 C 266.917 163.416 269.443 162.371 272.077 162.372 L 329 162.372 C 331.634 162.371 334.16 163.416 336.023 165.279 C 337.885 167.141 338.931 169.667 338.93 172.301 C 338.931 174.935 337.885 177.461 336.022 179.323 C 334.16 181.186 331.634 182.232 329 182.231 Z M 329 258.372 L 272.077 258.372 C 269.443 258.373 266.916 257.327 265.054 255.464 C 263.191 253.602 262.145 251.075 262.146 248.441 C 262.145 245.807 263.192 243.281 265.054 241.419 C 266.917 239.557 269.443 238.511 272.077 238.512 L 329 238.512 C 331.634 238.511 334.16 239.557 336.023 241.419 C 337.885 243.281 338.931 245.807 338.93 248.441 C 338.931 251.075 337.886 253.602 336.023 255.464 C 334.16 257.327 331.634 258.373 329 258.372 Z M 329 258.372" fill="rgb(255,255,255)"></path><path d="M 637.161 347.851 L 20.839 347.851 C 9.333 347.851 0 338.518 0 327.012 L 0 326.832 C 0 315.325 9.333 305.993 20.839 305.993 L 637.161 305.993 C 648.667 305.993 658 315.325 658 326.831 L 658 327.012 C 658 338.518 648.667 347.851 637.161 347.851 Z M 637.161 347.851" fill="rgb(58,76,104)" stroke-width="1.29" stroke="#D9FCFF" stroke-miterlimit="10"></path><path d="M 637.161 305.993 L 562.406 305.993 C 573.917 305.993 583.25 315.32 583.25 326.831 L 583.25 327.007 C 583.25 338.518 573.917 347.846 562.406 347.846 L 637.161 347.846 C 648.672 347.846 658 338.518 658 327.007 L 658 326.831 C 658 315.32 648.667 305.993 637.161 305.993 Z M 637.161 305.993" fill="rgb(40,52,73)"></path><path d="M 193.171 305.993 L 464.826 305.993 L 464.826 577.648 L 193.169 577.648 Z M 193.171 305.993" fill="rgb(210,179,147)"></path><path d="M 362.811 374.829 L 248.964 374.829 C 245.369 374.9 242.016 373.022 240.198 369.92 C 238.38 366.818 238.38 362.975 240.198 359.873 C 242.016 356.771 245.369 354.893 248.964 354.964 L 362.811 354.964 C 368.22 355.071 372.55 359.486 372.55 364.896 C 372.55 370.307 368.22 374.722 362.811 374.829 Z M 305.888 415.14 L 248.964 415.14 C 245.39 415.181 242.069 413.297 240.27 410.208 C 238.471 407.119 238.471 403.302 240.27 400.213 C 242.069 397.124 245.39 395.24 248.964 395.281 L 305.888 395.281 C 311.372 395.281 315.818 399.726 315.818 405.21 C 315.818 410.694 311.372 415.14 305.888 415.14 Z M 305.888 533.25 L 248.964 533.25 C 243.555 533.143 239.226 528.728 239.226 523.318 C 239.226 517.907 243.555 513.492 248.964 513.385 L 305.888 513.385 C 311.329 513.447 315.708 517.876 315.708 523.318 C 315.708 528.759 311.329 533.188 305.888 533.25 Z M 305.888 533.25" fill="rgb(255,255,255)"></path></svg>