<svg xmlns="http://www.w3.org/2000/svg" width="354" height="354"><path d="M 237.018 312 L 9 312 L 9 0.018 L 237.018 0.018 C 246.949 0.018 255 8.069 255 18 L 255 294.018 C 255 303.949 246.949 312 237.018 312 Z" fill="rgb(85,96,128)"></path><path d="M 189 0.018 L 219 0.018 L 219 312 L 189 312 Z" fill="rgb(215,90,74)"></path><path d="M 9 102.06 L 189 102.06 L 189 210.06 L 9 210.06 Z M 219 102.06 L 255 102.06 L 255 210.06 L 219 210.06 Z" fill="rgb(66,74,96)"></path><path d="M 69 342 L 51 330 L 33 342 L 33 312 L 69 312 Z" fill="rgb(235,186,22)"></path><path d="M 297 42 L 321 42 L 321 66 L 297 66 Z" fill="rgb(224,225,226)"></path><path d="M 321 0 L 308.91 0 C 306.537 0.001 304.219 0.709 302.25 2.034 C 298.966 4.248 296.998 7.95 297 11.91 L 297 42 L 321 42 Z M 333.09 0 Z" fill="rgb(215,90,74)"></path><path d="M 321 66 L 345 66 L 345 294 L 321 294 Z" fill="rgb(219,123,27)"></path><path d="M 321 42 L 345 42 L 345 66 L 321 66 Z" fill="rgb(196,196,196)"></path><path d="M 345 42 L 345 11.91 C 345.002 8.751 343.747 5.721 341.513 3.487 C 339.279 1.253 336.249 -0.002 333.09 0 L 321 0 L 321 42 Z" fill="rgb(183,76,68)"></path><path d="M 345 294 L 297 294 L 321 336 Z" fill="rgb(235,214,189)"></path><path d="M 315 348 C 315 351.314 317.686 354 321 354 C 324.314 354 327 351.314 327 348 L 327 324 L 315 324 Z" fill="rgb(76,76,76)"></path><path d="M 297 66 L 321 66 L 321 294 L 297 294 Z" fill="rgb(237,138,25)"></path></svg>