<svg xmlns="http://www.w3.org/2000/svg" width="15" height="15"><path d="M 11.871 6.633 L 5.594 0.366 C 5.363 0.122 5.074 0 4.727 0 C 4.381 0 4.092 0.122 3.861 0.366 L 3.129 1.088 C 2.892 1.325 2.773 1.614 2.773 1.954 C 2.773 2.288 2.892 2.58 3.129 2.83 L 7.808 7.5 L 3.129 12.179 C 2.891 12.417 2.773 12.705 2.773 13.046 C 2.773 13.379 2.891 13.672 3.129 13.922 L 3.861 14.644 C 4.098 14.881 4.387 15 4.727 15 C 5.067 15 5.356 14.881 5.594 14.644 L 11.871 8.376 C 12.108 8.126 12.227 7.834 12.227 7.5 C 12.227 7.16 12.108 6.871 11.871 6.633 Z" fill="rgb(39, 59, 122)"></path></svg>