<svg xmlns="http://www.w3.org/2000/svg" width="750" height="750"><path d="M 0 375 C 0 167.893 167.893 0 375 0 C 582.107 0 750 167.893 750 375 C 750 582.107 582.107 750 375 750 C 167.893 750 0 582.107 0 375 Z" fill="#030611"></path><path d="M 441.532 508.95 C 422.736 511.037 405.361 493.461 402.723 469.695 C 400.085 445.929 413.184 424.972 431.98 422.886 C 450.776 420.8 468.152 438.375 470.79 462.141 C 473.427 485.907 460.328 506.864 441.532 508.95 Z" fill="rgb(60,60,64)"></path><g transform="translate(418.361 422.719)"><path d="M 13.632 0.168 L 23.182 86.232 C 41.979 84.145 55.078 63.189 52.44 39.423 C 49.803 15.656 32.428 -1.918 13.632 0.168 Z" fill="rgb(40,42,44)"></path><path d="M 17.011 30.687 C 8.374 31.646 0.783 27.115 0.056 20.567 C -0.671 14.02 5.742 7.935 14.38 6.976 C 23.017 6.017 30.608 10.548 31.335 17.096 C 32.061 23.643 25.649 29.728 17.011 30.687 Z" fill="rgb(40,42,44)"></path></g><path d="M 449.703 439.809 C 448.976 433.263 441.385 428.73 432.747 429.69 L 435.379 453.4 C 444.018 452.442 450.429 446.357 449.703 439.809 Z" fill="rgb(23,23,25)"></path><path d="M 354.816 406.923 L 334.515 422.437 L 339.703 383.621 C 341.238 372.132 333.171 361.575 321.683 360.038 C 310.194 358.503 299.637 366.57 298.1 378.059 L 297.199 384.804 L 275.585 356.522 C 268.283 346.966 254.615 345.138 245.058 352.44 L 245.055 352.441 C 236.186 359.219 234.495 371.897 241.271 380.767 L 263.839 410.298 L 257.093 409.397 C 245.604 407.862 235.047 415.929 233.511 427.418 C 231.976 438.907 240.042 449.464 251.531 451 L 290.348 456.189 L 270.047 471.703 C 259.92 479.442 257.985 493.923 265.723 504.05 C 272.061 512.344 283.917 513.927 292.21 507.589 L 324.145 483.185 L 342.727 507.5 L 370.269 486.453 L 351.687 462.138 L 383.622 437.733 C 391.913 431.396 393.5 419.539 387.163 411.248 L 387.161 411.246 C 379.425 401.121 364.942 399.186 354.816 406.923 Z" fill="rgb(62,195,128)"></path><path d="M 354.816 406.923 L 334.515 422.437 L 339.703 383.621 C 341.238 372.132 333.171 361.575 321.683 360.038 C 310.194 358.503 299.637 366.57 298.1 378.059 L 297.199 384.804 L 275.585 356.522 C 268.283 346.966 254.615 345.138 245.058 352.44 L 245.055 352.441 L 245.039 352.455 L 355.856 497.465 L 370.27 486.451 L 351.688 462.136 L 383.624 437.732 C 391.915 431.395 393.501 419.537 387.164 411.246 L 387.163 411.245 C 379.425 401.121 364.942 399.186 354.816 406.923 Z" fill="rgb(0,169,91)"></path><path d="M 469.849 144.445 L 449.751 137.332 L 479.241 123.261 C 487.969 119.096 491.667 108.645 487.503 99.917 C 483.338 91.189 472.887 87.491 464.159 91.655 L 459.034 94.102 L 468.942 66.104 C 472.291 56.644 467.336 46.26 457.875 42.911 L 457.872 42.91 C 449.093 39.803 439.462 44.401 436.355 53.178 L 426.007 82.411 L 423.561 77.285 C 419.396 68.558 408.945 64.859 400.217 69.023 C 391.49 73.188 387.791 83.64 391.956 92.367 L 406.027 121.857 L 385.929 114.744 C 375.904 111.196 364.903 116.446 361.354 126.47 C 358.447 134.681 362.747 143.688 370.956 146.593 L 402.568 157.783 L 394.049 181.852 L 421.314 191.502 L 429.833 167.433 L 461.446 178.623 C 469.654 181.528 478.664 177.23 481.569 169.022 L 481.569 169.021 C 485.124 158.997 479.874 147.995 469.849 144.445 Z" fill="rgb(62,195,128)"></path><path d="M 469.849 144.445 L 449.751 137.332 L 479.241 123.261 C 487.969 119.096 491.667 108.645 487.503 99.917 C 483.338 91.189 472.887 87.491 464.159 91.655 L 459.034 94.102 L 468.942 66.104 C 472.291 56.644 467.336 46.26 457.875 42.911 L 457.872 42.91 L 457.854 42.905 L 407.046 186.454 L 421.315 191.503 L 429.835 167.435 L 461.448 178.625 C 469.655 181.529 478.666 177.231 481.57 169.024 L 481.57 169.022 C 485.124 158.997 479.874 147.995 469.849 144.445 Z" fill="rgb(0,169,91)"></path><path d="M 163.682 468.961 C 163.682 584.231 257.127 677.678 372.398 677.678 C 487.67 677.678 581.115 584.234 581.115 468.961 Z" fill="rgb(255,255,255)"></path><g transform="translate(279.56 468.961)"><path d="M 0 186.51 L 185.662 186.51 L 185.662 232.84 L 0 232.84 Z" fill="rgb(162,224,237)"></path><path d="M 92.839 0 L 92.839 208.715 C 208.109 208.715 301.556 115.271 301.556 0 Z" fill="rgb(162,224,237)"></path></g><path d="M 372.397 655.471 L 465.236 655.471 L 465.236 701.801 L 372.397 701.801 Z" fill="rgb(101,209,230)"></path><path d="M 423.504 306.286 L 423.458 306.409 C 412.17 339.87 430.146 376.147 463.605 387.435 C 497.067 398.723 533.344 380.75 544.632 347.288 L 544.67 347.164 Z" fill="rgb(255,119,81)"></path><path d="M 441.795 312.456 L 441.75 312.579 C 433.869 335.938 446.417 361.264 469.778 369.145 C 493.138 377.026 518.464 364.478 526.345 341.117 L 526.383 340.992 Z" fill="rgb(255,187,171)"></path><path d="M 484.088 326.723 L 463.607 387.435 C 497.068 398.723 533.345 380.75 544.633 347.288 L 544.671 347.164 Z" fill="rgb(255,95,59)"></path><path d="M 484.088 326.723 L 469.777 369.144 C 493.137 377.024 518.462 364.477 526.343 341.115 L 526.381 340.991 Z" fill="rgb(255,147,118)"></path><path d="M 481.11 353.481 C 480.05 356.413 476.842 357.96 473.888 356.964 C 470.935 355.968 469.318 352.794 470.25 349.819 C 471.262 346.821 477.984 334.92 480.983 335.933 C 483.981 336.943 482.121 350.483 481.11 353.481 Z" fill="rgb(255,247,207)"></path><path d="M 481.11 353.481 C 482.123 350.483 483.983 336.943 480.983 335.931 L 473.849 357.079 C 476.848 358.091 480.099 356.48 481.11 353.481 Z" fill="rgb(254,238,154)"></path><path d="M 458.697 338.969 C 455.861 340.375 452.423 339.215 451.018 336.378 C 449.613 333.541 450.772 330.104 453.609 328.699 C 456.445 327.293 469.613 323.632 471.018 326.47 C 472.424 329.306 461.533 337.563 458.697 338.969 Z" fill="rgb(255,247,207)"></path><path d="M 496.874 351.847 C 498.278 354.683 501.716 355.843 504.552 354.438 C 507.388 353.033 508.548 349.595 507.144 346.759 C 505.739 343.922 497.48 333.034 494.644 334.44 C 491.808 335.846 495.467 349.012 496.874 351.847 Z" fill="rgb(254,238,154)"></path><path d="M 188.142 290.953 C 188.169 290.987 188.194 291.023 188.221 291.057 C 210.391 318.543 250.646 322.854 278.134 300.684 C 305.621 278.514 309.932 238.258 287.761 210.771 L 287.676 210.671 Z" fill="rgb(255,119,81)"></path><path d="M 203.167 278.834 C 203.194 278.868 203.219 278.905 203.246 278.938 C 218.723 298.128 246.826 301.137 266.016 285.659 C 285.205 270.182 288.212 242.079 272.736 222.889 L 272.651 222.79 Z" fill="rgb(255,187,171)"></path><path d="M 237.908 250.811 L 278.134 300.683 C 305.621 278.512 309.932 238.257 287.761 210.769 L 287.676 210.669 Z" fill="rgb(255,95,59)"></path><path d="M 237.908 250.811 L 266.016 285.658 C 285.205 270.18 288.212 242.077 272.736 222.888 L 272.651 222.788 Z" fill="rgb(255,147,118)"></path><path d="M 258.883 267.688 C 260.87 270.152 260.484 273.76 258.021 275.747 C 255.557 277.734 251.949 277.347 249.962 274.884 C 247.976 272.42 241.545 260.361 244.008 258.374 C 246.472 256.387 256.897 265.225 258.883 267.688 Z" fill="rgb(255,247,207)"></path><path d="M 258.883 267.688 C 256.897 265.225 246.472 256.387 244.008 258.375 L 258.019 275.747 C 259.203 274.793 259.96 273.408 260.122 271.897 C 260.284 270.385 259.838 268.871 258.883 267.688 Z" fill="rgb(254,238,154)"></path><path d="M 234.609 278.808 C 234.2 281.891 231.408 284.085 228.316 283.754 C 225.224 283.423 222.959 280.687 223.211 277.588 C 223.548 274.441 227.53 261.368 230.676 261.705 C 233.824 262.04 234.946 275.66 234.609 278.808 Z" fill="rgb(255,247,207)"></path><path d="M 265.969 253.512 C 269.094 253.809 271.877 251.537 272.211 248.416 C 272.546 245.294 270.306 242.485 267.189 242.114 C 264.042 241.777 250.421 242.899 250.084 246.045 C 249.749 249.196 262.822 253.175 265.969 253.512 Z" fill="rgb(254,238,154)"></path><path d="M 354.162 325.473 C 333.771 317.939 324.963 290.932 334.489 265.151 C 344.015 239.37 368.268 224.578 388.658 232.112 C 409.049 239.647 417.857 266.654 408.331 292.435 C 398.805 318.216 374.553 333.008 354.162 325.473 Z" fill="rgb(60,60,64)"></path><g transform="translate(354.182 232.112)"><path d="M 34.496 0 L 0 93.363 C 20.391 100.897 44.643 86.105 54.168 60.324 C 63.696 34.541 54.888 7.534 34.496 0 Z" fill="rgb(40,42,44)"></path><path d="M 22.255 33.114 C 12.885 29.651 7.417 21.087 10.041 13.985 C 12.665 6.883 22.388 3.932 31.758 7.394 C 41.128 10.856 46.596 19.42 43.972 26.522 C 41.347 33.625 31.624 36.576 22.255 33.114 Z" fill="rgb(40,42,44)"></path></g><path d="M 398.167 258.621 C 400.792 251.518 395.322 242.953 385.951 239.492 L 376.447 265.214 C 385.818 268.674 395.542 265.724 398.167 258.621 Z" fill="rgb(23,23,25)"></path><path d="M 317.393 166.243 C 298.597 168.329 281.221 150.754 278.583 126.988 C 275.946 103.222 289.045 82.265 307.841 80.179 C 326.637 78.093 344.012 95.668 346.65 119.434 C 349.288 143.2 336.189 164.157 317.393 166.243 Z" fill="rgb(199,224,88)"></path><path d="M 307.843 80.183 L 317.394 166.247 C 336.19 164.159 349.289 143.203 346.651 119.438 C 344.014 95.67 326.638 78.095 307.843 80.183 Z" fill="rgb(171,214,52)"></path><path d="M 311.227 110.699 C 302.59 111.657 294.998 107.127 294.272 100.579 C 293.545 94.031 299.958 87.946 308.595 86.988 C 317.233 86.029 324.824 90.56 325.55 97.108 C 326.277 103.655 319.864 109.74 311.227 110.699 Z" fill="rgb(125,202,63)"></path><path d="M 325.553 97.104 C 324.826 90.558 317.235 86.026 308.597 86.985 L 311.229 110.695 C 319.866 109.737 326.279 103.651 325.553 97.104 Z" fill="rgb(101,176,66)"></path><path d="M 458.426 242.058 C 458.426 211.065 483.551 185.94 514.544 185.94 C 545.537 185.94 570.662 211.065 570.662 242.058 C 570.662 273.051 545.537 298.176 514.544 298.176 C 483.551 298.176 458.426 273.051 458.426 242.058 Z" fill="rgb(62,195,128)"></path><path d="M 514.547 185.938 L 514.547 298.178 C 545.542 298.178 570.667 273.053 570.667 242.057 C 570.667 211.061 545.542 185.938 514.547 185.938 Z" fill="rgb(0,169,91)"></path><path d="M 474.368 242.058 C 474.368 219.869 492.355 201.882 514.544 201.882 C 536.733 201.882 554.72 219.869 554.72 242.058 C 554.72 264.247 536.733 282.234 514.544 282.234 C 492.355 282.234 474.368 264.247 474.368 242.058 Z" fill="rgb(255,247,207)"></path><path d="M 554.723 242.058 C 554.723 219.869 536.735 201.88 514.547 201.88 L 514.547 282.234 C 536.735 282.236 554.723 264.248 554.723 242.058 Z" fill="rgb(254,238,154)"></path><path d="M 519.5 267.356 C 519.5 270.091 517.282 272.309 514.547 272.309 C 511.812 272.309 509.594 270.091 509.594 267.356 C 509.594 264.621 511.812 253.017 514.547 253.017 C 517.282 253.017 519.5 264.621 519.5 267.356 Z" fill="rgb(255,255,255)"></path><path d="M 519.5 267.356 C 519.5 264.621 517.282 253.017 514.547 253.017 L 514.547 272.309 C 515.861 272.309 517.12 271.787 518.049 270.858 C 518.978 269.93 519.5 268.67 519.5 267.356 Z" fill="rgb(255,247,207)"></path><path d="M 497.133 261.664 C 495.197 263.597 492.062 263.597 490.126 261.664 C 488.193 259.728 488.193 256.593 490.126 254.657 C 492.06 252.724 501.833 246.085 503.769 248.02 C 505.705 249.955 499.068 259.729 497.133 261.664 Z" fill="rgb(255,255,255)"></path><path d="M 531.961 261.664 C 533.896 263.597 537.032 263.597 538.967 261.664 C 540.9 259.728 540.9 256.593 538.967 254.657 C 537.034 252.724 527.26 246.085 525.325 248.02 C 523.39 249.955 530.026 259.729 531.961 261.664 Z" fill="rgb(255,247,207)"></path><path d="M 519.5 216.76 C 519.5 214.025 517.282 211.808 514.547 211.808 C 511.812 211.808 509.594 214.025 509.594 216.76 C 509.594 219.495 511.812 231.1 514.547 231.1 C 517.282 231.1 519.5 219.495 519.5 216.76 Z" fill="rgb(255,255,255)"></path><path d="M 519.5 216.76 C 519.5 219.495 517.282 231.1 514.547 231.1 L 514.547 211.808 C 515.861 211.807 517.12 212.329 518.049 213.258 C 518.978 214.187 519.5 215.447 519.5 216.76 Z" fill="rgb(255,247,207)"></path><path d="M 497.133 222.453 C 495.197 220.519 492.062 220.519 490.126 222.453 C 488.193 224.388 488.193 227.524 490.126 229.459 C 492.06 231.393 501.833 238.031 503.769 236.096 C 505.705 234.161 499.068 224.388 497.133 222.453 Z" fill="rgb(255,255,255)"></path><path d="M 531.961 222.453 C 533.896 220.519 537.032 220.519 538.967 222.453 C 540.9 224.388 540.9 227.524 538.967 229.459 C 537.034 231.393 527.26 238.031 525.325 236.096 C 523.39 234.161 530.026 224.388 531.961 222.453 Z" fill="rgb(255,247,207)"></path><path d="M 150.25 162.779 C 150.25 126.922 179.319 97.853 215.177 97.853 C 251.035 97.853 280.103 126.922 280.103 162.779 C 280.103 198.637 251.035 227.706 215.177 227.706 C 179.319 227.706 150.25 198.637 150.25 162.779 Z" fill="rgb(62,195,128)"></path><path d="M 215.172 97.853 L 215.172 227.697 C 251.029 227.697 280.094 198.63 280.094 162.775 C 280.094 126.92 251.026 97.853 215.172 97.853 Z" fill="rgb(0,169,91)"></path><path d="M 168.697 162.779 C 168.697 137.109 189.507 116.3 215.177 116.3 C 240.847 116.3 261.656 137.109 261.656 162.779 C 261.656 188.449 240.847 209.259 215.177 209.259 C 189.507 209.259 168.697 188.449 168.697 162.779 Z" fill="rgb(255,247,207)"></path><path d="M 261.65 162.775 C 261.65 137.106 240.842 116.295 215.171 116.295 L 215.171 209.253 C 240.841 209.254 261.65 188.445 261.65 162.775 Z" fill="rgb(254,238,154)"></path><path d="M 220.903 192.041 C 220.832 195.155 218.288 197.643 215.172 197.643 C 212.057 197.643 209.512 195.155 209.442 192.041 C 209.442 188.877 212.008 175.453 215.172 175.453 C 218.336 175.453 220.903 188.877 220.903 192.041 Z" fill="rgb(255,255,255)"></path><path d="M 220.903 192.041 C 220.903 188.877 218.336 175.453 215.172 175.453 L 215.172 197.773 C 218.337 197.771 220.902 195.206 220.903 192.041 Z" fill="rgb(255,247,207)"></path><path d="M 195.026 185.455 C 192.788 187.693 189.16 187.693 186.921 185.455 C 184.683 183.217 184.683 179.588 186.921 177.35 C 189.16 175.112 200.465 167.435 202.704 169.673 C 204.942 171.91 197.265 183.217 195.026 185.455 Z" fill="rgb(255,255,255)"></path><path d="M 235.318 185.455 C 237.556 187.693 241.185 187.693 243.423 185.455 C 245.661 183.217 245.661 179.588 243.423 177.35 C 241.185 175.112 229.879 167.435 227.641 169.673 C 225.401 171.91 233.08 183.217 235.318 185.455 Z" fill="rgb(255,247,207)"></path><path d="M 220.903 133.509 C 220.832 130.394 218.288 127.906 215.172 127.906 C 212.057 127.906 209.512 130.394 209.442 133.509 C 209.442 136.673 212.008 150.097 215.172 150.097 C 218.336 150.097 220.903 136.673 220.903 133.509 Z" fill="rgb(255,255,255)"></path><path d="M 220.903 133.509 C 220.903 136.673 218.336 150.097 215.172 150.097 L 215.172 127.778 C 218.337 127.779 220.902 130.344 220.903 133.509 Z" fill="rgb(255,247,207)"></path><path d="M 195.026 140.096 C 192.788 137.858 189.16 137.858 186.921 140.096 C 184.683 142.334 184.683 145.963 186.921 148.201 C 189.16 150.439 200.465 158.117 202.704 155.878 C 204.942 153.64 197.265 142.334 195.026 140.096 Z" fill="rgb(255,255,255)"></path><path d="M 235.318 140.096 C 237.556 137.858 241.185 137.858 243.423 140.096 C 245.661 142.334 245.661 145.963 243.423 148.201 C 241.185 150.439 229.879 158.117 227.641 155.878 C 225.401 153.64 233.08 142.334 235.318 140.096 Z" fill="rgb(255,247,207)"></path></svg>