<svg xmlns="http://www.w3.org/2000/svg" width="445" height="445"><path d="M 352.168 196.792 L 165.951 10.852 C 159.094 3.616 150.53 0 140.244 0 C 129.958 0 121.394 3.62 114.537 10.852 L 92.83 32.277 C 85.783 39.323 82.259 47.887 82.259 57.98 C 82.259 67.881 85.782 76.547 92.83 83.971 L 231.639 222.501 L 92.824 361.315 C 85.779 368.361 82.255 376.925 82.255 387.018 C 82.255 396.918 85.778 405.588 92.824 413.009 L 114.533 434.431 C 121.578 441.477 130.151 444.999 140.24 444.999 C 150.333 444.999 158.904 441.477 165.947 434.431 L 352.168 248.491 C 359.217 241.065 362.744 232.401 362.744 222.499 C 362.745 212.407 359.217 203.838 352.168 196.792 Z" fill="rgb(107, 107, 107)"></path></svg>