<svg xmlns="http://www.w3.org/2000/svg" width="40" height="40"><path d="M 37.895 23.86 L 34.386 23.86 L 34.386 19.649 L 37.895 19.649 C 39.055 19.649 40 20.594 40 21.754 C 40 22.915 39.055 23.86 37.895 23.86 Z M 35.789 22.456 L 37.895 22.456 C 38.282 22.456 38.596 22.142 38.596 21.754 C 38.596 21.367 38.282 21.053 37.895 21.053 L 35.789 21.053 Z M 5.614 23.86 L 2.105 23.86 C 0.945 23.86 0 22.915 0 21.754 C 0 20.594 0.945 19.649 2.105 19.649 L 5.614 19.649 Z M 2.105 21.053 C 1.718 21.053 1.404 21.367 1.404 21.754 C 1.404 22.142 1.718 22.456 2.105 22.456 L 4.211 22.456 L 4.211 21.053 Z" fill="rgb(230,230,230)"></path><path d="M 22.105 7.719 C 20.751 7.719 19.649 6.618 19.649 5.263 C 19.649 3.909 20.751 2.807 22.105 2.807 C 23.46 2.807 24.561 3.909 24.561 5.263 C 24.561 6.618 23.46 7.719 22.105 7.719 Z M 22.105 4.211 C 21.525 4.211 21.053 4.683 21.053 5.263 C 21.053 5.844 21.525 6.316 22.105 6.316 C 22.686 6.316 23.158 5.844 23.158 5.263 C 23.158 4.683 22.686 4.211 22.105 4.211 Z" fill="rgb(210,213,215)"></path><path d="M 30.175 12.632 C 29.401 12.632 28.772 12.002 28.772 11.228 C 28.772 10.454 29.401 9.825 30.175 9.825 C 30.949 9.825 31.579 10.454 31.579 11.228 C 31.579 12.002 30.949 12.632 30.175 12.632 Z M 30.175 11.227 L 30.175 11.228 Z M 9.129 14.035 L 9.123 14.035 C 8.534 14.036 7.959 13.851 7.482 13.506 C 7.186 13.273 7.127 12.849 7.347 12.543 C 7.567 12.238 7.988 12.16 8.302 12.367 C 8.543 12.54 8.826 12.632 9.123 12.632 C 9.511 12.632 9.827 12.945 9.827 13.333 C 9.827 13.721 9.517 14.035 9.129 14.035 Z M 10.827 13.166 C 10.564 13.166 10.322 13.018 10.202 12.783 C 10.083 12.548 10.105 12.266 10.26 12.053 C 10.434 11.811 10.526 11.526 10.526 11.228 C 10.526 10.84 10.84 10.513 11.228 10.513 C 11.616 10.513 11.93 10.815 11.93 11.202 L 11.93 11.228 C 11.93 11.825 11.745 12.394 11.396 12.876 C 11.264 13.058 11.052 13.166 10.827 13.166 Z M 7.018 11.936 C 6.629 11.936 6.316 11.629 6.316 11.241 L 6.316 11.228 C 6.316 10.639 6.498 10.074 6.84 9.594 C 6.985 9.388 7.229 9.275 7.48 9.299 C 7.731 9.323 7.95 9.479 8.054 9.709 C 8.158 9.939 8.13 10.207 7.982 10.411 C 7.811 10.649 7.719 10.935 7.719 11.228 C 7.719 11.616 7.406 11.936 7.018 11.936 Z M 10.342 10.214 C 10.201 10.214 10.06 10.171 9.935 10.084 C 9.698 9.914 9.414 9.824 9.123 9.825 C 8.735 9.825 8.412 9.511 8.412 9.123 C 8.412 8.735 8.716 8.421 9.104 8.421 L 9.123 8.421 C 9.711 8.421 10.274 8.601 10.751 8.94 C 10.999 9.118 11.104 9.435 11.011 9.726 C 10.918 10.017 10.648 10.214 10.342 10.214 Z M 19.639 16.14 L 16.15 16.14 L 15.94 15.862 C 15.615 15.439 15.439 14.92 15.439 14.386 C 15.439 13.032 16.54 11.93 17.895 11.93 C 19.249 11.93 20.351 13.032 20.351 14.386 C 20.351 14.919 20.178 15.429 19.849 15.862 Z M 16.905 14.737 L 18.884 14.737 C 18.921 14.636 18.947 14.518 18.947 14.386 C 18.947 13.806 18.475 13.333 17.895 13.333 C 17.314 13.333 16.842 13.806 16.842 14.386 C 16.842 14.518 16.868 14.636 16.905 14.737 Z" fill="rgb(230,230,230)"></path><path d="M 36.269 15.439 L 3.731 15.439 C 3.544 15.44 3.372 15.541 3.281 15.703 C 3.189 15.865 3.192 16.065 3.288 16.225 L 4.432 18.142 C 4.747 18.669 4.912 19.272 4.912 19.885 L 4.912 28.63 C 4.912 30.646 6.538 32.281 8.542 32.281 L 9.998 32.281 C 9.548 31.362 9.941 30.778 11.667 29.474 C 12.715 30.861 13.409 31.614 13.498 32.281 L 18.848 32.281 C 16.644 29.425 16.387 28.761 20.087 25.965 C 22.716 29.446 23.907 30.349 22.002 32.281 L 26.662 32.281 C 26.213 31.362 26.606 30.778 28.331 29.474 C 29.38 30.861 30.074 31.614 30.163 32.281 L 31.456 32.281 C 33.462 32.281 35.088 30.646 35.088 28.631 L 35.088 19.885 C 35.088 19.271 35.253 18.669 35.568 18.143 L 36.712 16.225 C 36.808 16.065 36.811 15.865 36.719 15.703 C 36.628 15.541 36.456 15.44 36.269 15.439 Z" fill="rgb(210,213,215)"></path><path d="M 28.772 37.193 L 10.526 37.193 C 10.139 37.193 9.825 36.879 9.825 36.491 C 9.825 36.104 10.139 35.789 10.526 35.789 L 28.772 35.789 C 29.159 35.789 29.474 36.104 29.474 36.491 C 29.474 36.879 29.159 37.193 28.772 37.193 Z" fill="rgb(230,230,230)"></path><path d="M 32.281 19.649 L 14.087 19.649 C 13.699 19.649 13.385 19.335 13.385 18.947 C 13.385 18.56 13.699 18.246 14.087 18.246 L 32.281 18.246 C 32.668 18.246 32.982 18.56 32.982 18.947 C 32.982 19.335 32.668 19.649 32.281 19.649 Z" fill="rgb(255,255,255)"></path><g transform="translate(9.122 28.491)"><path d="M 2.546 6.102 C 5.331 3.997 4.65 3.768 2.546 0.983 C -0.24 3.088 0.441 3.316 2.546 6.102 Z" fill="rgb(239,119,29)"></path><path d="M 2.409 7.084 L 1.986 6.524 C 1.773 6.243 1.574 5.986 1.392 5.752 C 0.46 4.551 -0.104 3.825 0.016 2.924 C 0.128 2.074 0.843 1.389 2.123 0.423 L 2.683 0 L 3.106 0.56 C 3.319 0.842 3.518 1.098 3.7 1.332 C 4.632 2.534 5.195 3.259 5.075 4.161 C 4.963 5.011 4.248 5.695 2.969 6.661 Z M 2.419 1.971 C 1.9 2.393 1.445 2.827 1.408 3.108 C 1.365 3.429 1.842 4.042 2.502 4.892 L 2.673 5.113 C 3.191 4.691 3.647 4.258 3.683 3.976 C 3.726 3.655 3.25 3.042 2.59 2.192 C 2.535 2.121 2.477 2.048 2.419 1.971 Z" fill="rgb(239,119,29)"></path></g><g transform="translate(16.533 24.982)"><path d="M 3.555 8.909 C 7.868 5.651 6.813 5.296 3.555 0.983 C -0.758 4.241 0.296 4.596 3.555 8.909 Z" fill="rgb(249,218,73)"></path><path d="M 3.418 9.891 L 2.995 9.331 C 2.664 8.893 2.355 8.496 2.074 8.132 C 0.691 6.351 -0.144 5.276 0.021 4.039 C 0.177 2.857 1.235 1.857 3.133 0.423 L 3.693 0 L 4.116 0.56 C 4.448 0.999 4.756 1.396 5.037 1.759 C 6.42 3.54 7.254 4.615 7.091 5.853 C 6.933 7.034 5.877 8.034 3.978 9.468 Z M 3.424 1.968 C 2.256 2.885 1.49 3.629 1.411 4.223 C 1.324 4.879 2.023 5.78 3.182 7.272 C 3.342 7.478 3.51 7.695 3.686 7.924 C 4.853 7.007 5.619 6.263 5.698 5.669 C 5.785 5.013 5.086 4.112 3.928 2.62 Z" fill="rgb(249,218,73)"></path></g><g transform="translate(25.787 28.491)"><path d="M 2.545 0.983 C -0.24 3.088 0.441 3.316 2.545 6.102 C 5.331 3.997 4.65 3.768 2.545 0.983 Z" fill="rgb(239,119,29)"></path><path d="M 2.408 7.084 L 1.985 6.524 C 1.772 6.242 1.573 5.986 1.391 5.752 C 0.459 4.55 -0.104 3.825 0.016 2.924 C 0.128 2.074 0.843 1.389 2.122 0.423 L 2.682 0 L 3.105 0.56 C 3.318 0.841 3.517 1.098 3.699 1.332 C 4.631 2.533 5.195 3.259 5.075 4.161 C 4.963 5.011 4.248 5.695 2.968 6.661 Z M 2.418 1.971 C 1.9 2.393 1.444 2.827 1.408 3.108 C 1.365 3.429 1.841 4.042 2.501 4.892 L 2.672 5.113 C 3.191 4.691 3.646 4.258 3.683 3.976 C 3.726 3.655 3.249 3.042 2.589 2.192 Z" fill="rgb(239,119,29)"></path></g><path d="M 11.107 19.649 L 7.719 19.649 C 7.332 19.649 7.018 19.335 7.018 18.947 C 7.018 18.56 7.332 18.246 7.719 18.246 L 11.107 18.246 C 11.494 18.246 11.808 18.56 11.808 18.947 C 11.808 19.335 11.494 19.649 11.107 19.649 Z" fill="rgb(255,255,255)"></path></svg>