<svg width="30" height="30" viewBox="0 0 30 30" fill="none" xmlns="http://www.w3.org/2000/svg">
<path d="M15 30C10.9934 30 7.22649 28.4397 4.39339 25.6066C1.56029 22.7735 0 19.0066 0 15C0 11.5865 1.11717 8.37044 3.23067 5.69939C3.38127 5.50919 3.65753 5.47691 3.84796 5.62752C4.03839 5.77812 4.07043 6.05438 3.91983 6.24481C1.93039 8.75908 0.878906 11.7865 0.878906 15C0.878906 18.772 2.34764 22.318 5.0148 24.9852C7.68196 27.6524 11.228 29.1211 15 29.1211C18.772 29.1211 22.318 27.6524 24.9852 24.9852C27.6524 22.318 29.1211 18.772 29.1211 15C29.1211 11.228 27.6524 7.68196 24.9852 5.0148C22.318 2.34764 18.772 0.878906 15 0.878906C11.2843 0.878906 7.77626 2.31033 5.12169 4.90929C4.94843 5.07889 4.6701 5.07614 4.50027 4.90265C4.33044 4.72916 4.33342 4.45107 4.50668 4.28123C7.32651 1.52046 11.0532 0 15 0C19.0066 0 22.7735 1.56029 25.6066 4.39339C28.4397 7.22649 30 10.9934 30 15C30 19.0066 28.4397 22.7735 25.6066 25.6066C22.7735 28.4397 19.0066 30 15 30Z" fill="black"/>
<path d="M14.1101 23.2661C13.5397 23.2661 12.9994 23.0816 12.5473 22.733L5.68337 17.4383C5.14207 17.0206 4.79554 16.417 4.70811 15.7388C4.62045 15.0606 4.80241 14.3891 5.21989 13.8476C5.6376 13.3063 6.24116 12.96 6.91934 12.8723C7.59751 12.7849 8.26928 12.9666 8.81059 13.3843L13.7991 17.2325L20.8537 9.42535C21.3119 8.91792 21.9406 8.61946 22.6234 8.5849C23.3064 8.55034 23.9619 8.78357 24.4693 9.24202C24.9767 9.70047 25.2752 10.3292 25.3098 11.0122C25.3443 11.6949 25.1109 12.3505 24.6524 12.8579L23.4815 14.1538C23.3187 14.3339 23.0409 14.3479 22.8607 14.1852C22.6808 14.0224 22.6666 13.7446 22.8294 13.5647L24.0003 12.2687C24.6217 11.581 24.5723 10.5109 23.8799 9.89433C22.8996 9.02092 21.8067 9.68124 21.5057 10.0145L14.1788 18.1233C14.025 18.2936 13.7661 18.3167 13.5844 18.1766L8.27363 14.0801C7.91841 13.8059 6.66253 13.3955 5.91592 14.3843C5.16931 15.3733 5.86465 16.468 6.2201 16.7422L13.084 22.037C13.3809 22.2661 13.7357 22.3869 14.1101 22.3869C14.585 22.3869 15.0401 22.185 15.3582 21.833L21.6184 14.9048C21.7811 14.7246 22.059 14.7107 22.2391 14.8734C22.419 15.0359 22.4332 15.314 22.2704 15.4939L16.0103 22.4224C15.5258 22.9584 14.8332 23.2661 14.1101 23.2661V23.2661Z" fill="black"/>
</svg>
