<svg width="55" height="55" viewBox="0 0 55 55" fill="none" xmlns="http://www.w3.org/2000/svg">
<g clip-path="url(#clip0)">
<path d="M22.5222 48.8467C22.8631 48.8467 23.1395 48.5703 23.1395 48.2294C23.1395 47.8885 22.8631 47.6122 22.5222 47.6122C22.1813 47.6122 21.905 47.8885 21.905 48.2294C21.905 48.5703 22.1813 48.8467 22.5222 48.8467Z" fill="#515151"/>
<path d="M22.5222 51.2189C22.8631 51.2189 23.1395 50.9425 23.1395 50.6016C23.1395 50.2607 22.8631 49.9844 22.5222 49.9844C22.1813 49.9844 21.905 50.2607 21.905 50.6016C21.905 50.9425 22.1813 51.2189 22.5222 51.2189Z" fill="#515151"/>
<path d="M32.4759 48.8467C32.8168 48.8467 33.0931 48.5703 33.0931 48.2294C33.0931 47.8885 32.8168 47.6122 32.4759 47.6122C32.135 47.6122 31.8586 47.8885 31.8586 48.2294C31.8586 48.5703 32.135 48.8467 32.4759 48.8467Z" fill="#515151"/>
<path d="M32.4759 51.2189C32.8168 51.2189 33.0931 50.9425 33.0931 50.6016C33.0931 50.2607 32.8168 49.9844 32.4759 49.9844C32.135 49.9844 31.8586 50.2607 31.8586 50.6016C31.8586 50.9425 32.135 51.2189 32.4759 51.2189Z" fill="#515151"/>
<path d="M27.5009 54.9998C42.6886 54.9998 55.0008 42.6877 55.0008 27.4999C55.0008 12.3121 42.6886 0 27.5009 0C12.3131 0 0.000976562 12.3121 0.000976562 27.4999C0.000976562 42.6877 12.3131 54.9998 27.5009 54.9998Z" fill="#386895"/>
<path d="M32.0832 31.3906H22.9166V40.5572H32.0832V31.3906Z" fill="#EEC8A2"/>
<path d="M32.0839 31.3906H27.3463V40.5572H32.0839V31.3906Z" fill="#5E372E"/>
<path d="M38.4316 38.7254L33.574 37.7539L32.7155 36.5007C32.5548 36.2661 32.2507 36.1777 31.9894 36.2897L31.0457 36.6961C28.783 37.671 26.2182 37.6687 23.9572 36.6897L23.0376 36.2916C22.7782 36.1785 22.4748 36.2634 22.3121 36.4949L21.4262 37.7538L16.5686 38.7253C14.0951 39.2201 12.3149 41.3916 12.3149 43.9138V50.4286C16.6663 53.3163 21.8862 54.9998 27.5 54.9998C33.1137 54.9998 38.3336 53.3163 42.6851 50.4285V43.9137C42.6851 41.3915 40.9049 39.22 38.4316 38.7254Z" fill="#E2E2E2"/>
<path d="M38.4316 38.7254L33.574 37.7539L32.7155 36.5007C32.5548 36.2661 32.2507 36.1777 31.9895 36.2897L31.0458 36.6964C29.8659 37.2047 28.6041 37.4447 27.3459 37.4218V54.9971C27.3974 54.9973 27.4485 55.0001 27.5002 55.0001C33.1138 55.0001 38.3339 53.3166 42.6853 50.4288V43.9139C42.6851 41.3915 40.9047 39.22 38.4316 38.7254Z" fill="#A0A0A0"/>
<path d="M20.1236 53.9946C22.4714 54.6474 24.9441 54.9998 27.5 54.9998C30.0559 54.9998 32.5287 54.6473 34.8766 53.9946V38.0143L33.5741 37.7537L32.7155 36.5005C32.5548 36.2659 32.2507 36.1775 31.9895 36.2894L31.0458 36.6961C28.7831 37.671 26.2183 37.6687 23.9573 36.6897L23.0376 36.2916C22.7782 36.1785 22.4748 36.2634 22.3121 36.4949L21.4262 37.7538L20.1238 38.0142V53.9946H20.1236Z" fill="#FCFCFC"/>
<path d="M38.4316 38.7254L33.574 37.7539L32.7155 36.5007C32.5548 36.2661 32.2507 36.1777 31.9894 36.2897L31.0457 36.6961C28.783 37.671 26.2182 37.6687 23.9572 36.6897L23.0376 36.2916C22.7782 36.1785 22.4748 36.2634 22.3121 36.4949L21.4262 37.7538L16.5686 38.7253C14.0951 39.2201 12.3149 41.3916 12.3149 43.9138V50.4286C16.6663 53.3163 21.8862 54.9998 27.5 54.9998C33.1137 54.9998 38.3336 53.3163 42.6851 50.4285V43.9137C42.6851 41.3915 40.9049 39.22 38.4316 38.7254Z" fill="#E2E2E2"/>
<path d="M20.1236 53.9946C22.4714 54.6474 24.9441 54.9998 27.5 54.9998C30.0559 54.9998 32.5287 54.6473 34.8766 53.9946V38.0143L33.5741 37.7537L32.7155 36.5005C32.5548 36.2659 32.2507 36.1775 31.9895 36.2894L31.0458 36.6961C28.7831 37.671 26.2183 37.6687 23.9573 36.6897L23.0376 36.2916C22.7782 36.1785 22.4748 36.2634 22.3121 36.4949L21.4262 37.7538L20.1238 38.0142V53.9946H20.1236Z" fill="#FCFCFC"/>
<path d="M33.574 37.7537L32.7155 36.5005C32.5548 36.2659 32.2507 36.1775 31.9895 36.2894L31.0458 36.6961C29.8659 37.2045 28.6041 37.4444 27.3459 37.4216V54.997C27.3974 54.9973 27.4485 54.9996 27.5002 54.9996C30.0561 54.9996 32.5289 54.6471 34.8768 53.9944V38.0141L33.574 37.7537Z" fill="#EFEFEF"/>
<path d="M22.5222 44.1041C22.8631 44.1041 23.1395 43.8278 23.1395 43.4869C23.1395 43.146 22.8631 42.8696 22.5222 42.8696C22.1813 42.8696 21.905 43.146 21.905 43.4869C21.905 43.8278 22.1813 44.1041 22.5222 44.1041Z" fill="#515151"/>
<path d="M22.5222 46.4763C22.8631 46.4763 23.1395 46.2 23.1395 45.8591C23.1395 45.5182 22.8631 45.2418 22.5222 45.2418C22.1813 45.2418 21.905 45.5182 21.905 45.8591C21.905 46.2 22.1813 46.4763 22.5222 46.4763Z" fill="#515151"/>
<path d="M32.4759 44.1041C32.8168 44.1041 33.0931 43.8278 33.0931 43.4869C33.0931 43.146 32.8168 42.8696 32.4759 42.8696C32.135 42.8696 31.8586 43.146 31.8586 43.4869C31.8586 43.8278 32.135 44.1041 32.4759 44.1041Z" fill="#515151"/>
<path d="M32.4759 46.4763C32.8168 46.4763 33.0931 46.2 33.0931 45.8591C33.0931 45.5182 32.8168 45.2418 32.4759 45.2418C32.135 45.2418 31.8586 45.5182 31.8586 45.8591C31.8586 46.2 32.135 46.4763 32.4759 46.4763Z" fill="#515151"/>
<path d="M36.7727 23.4248C36.8192 22.9947 36.8435 22.5709 36.8435 22.1575C36.8435 16.6895 32.6602 12.2568 27.5 12.2568C22.3398 12.2568 18.1565 16.6895 18.1565 22.1575C18.1565 22.5709 18.1807 22.9947 18.2273 23.4248C17.3209 23.6603 16.8896 25.0546 17.2643 26.5467C17.6401 28.0436 18.6839 29.0714 19.5961 28.8424C19.6793 28.8215 19.7568 28.788 19.8317 28.7486C21.5203 32.1376 24.3248 34.8871 27.5 34.8871C30.6752 34.8871 33.4799 32.1376 35.1683 28.7486C35.243 28.788 35.3209 28.8217 35.4038 28.8424C36.3161 29.0714 37.36 28.0436 37.7356 26.5467C38.1103 25.0546 37.679 23.6603 36.7727 23.4248Z" fill="#F3DBC4"/>
<path d="M36.7728 23.4248C36.8193 22.9947 36.8435 22.5709 36.8435 22.1575C36.8435 16.6895 32.6602 12.2568 27.5 12.2568C27.4484 12.2568 27.3974 12.2601 27.3458 12.2609V34.8829C27.3971 34.8844 27.4484 34.8869 27.5 34.8869C30.6752 34.8869 33.48 32.1373 35.1683 28.7485C35.2431 28.7879 35.321 28.8216 35.4039 28.8423C36.3161 29.0713 37.36 28.0434 37.7357 26.5466C38.1104 25.0546 37.6791 23.6603 36.7728 23.4248Z" fill="#714137"/>
<path d="M18.5246 23.7604C19.8753 24.4234 19.9643 27.0293 19.9643 27.0293C19.9643 27.0293 21.5285 21.66 20.9366 19.7153C20.3447 17.7705 21.9231 17.6371 21.9231 17.6371C23.9025 18.2886 25.793 18.5069 27.4386 18.5097V12.2333C18.1531 12.2816 17.1769 23.0989 18.5246 23.7604Z" fill="#3A3A3A"/>
<path d="M27.5 12.2322C27.4791 12.2322 27.4591 12.2333 27.4384 12.2333V18.5097C30.7596 18.5151 33.0772 17.6371 33.0772 17.6371C33.0772 17.6371 34.6556 17.7704 34.0637 19.7153C33.4718 21.66 35.0361 27.0293 35.0361 27.0293C35.0361 27.0293 35.1248 24.4236 36.4757 23.7604C37.8267 23.0973 36.8434 12.2322 27.5 12.2322Z" fill="#333333"/>
<path d="M38.7962 11.4054C38.7962 8.31132 36.2881 5.80313 33.194 5.80313C32.1544 5.80313 31.1815 6.08737 30.347 6.58086C29.5126 6.08737 28.5396 5.80313 27.5 5.80313C26.4604 5.80313 25.4875 6.08737 24.653 6.58086C23.8186 6.08737 22.8457 5.80313 21.806 5.80313C18.712 5.80313 16.2038 8.31132 16.2038 11.4054C16.2038 13.0717 16.9319 14.567 18.0866 15.5931V21.0485H36.9137V15.5933C38.0681 14.567 38.7962 13.0716 38.7962 11.4054Z" fill="#EFEFEF"/>
<path d="M33.1942 5.80313C32.1543 5.80313 31.1816 6.08737 30.3472 6.58086C29.5127 6.08737 28.5398 5.80313 27.5002 5.80313C27.4483 5.80313 27.3974 5.807 27.3459 5.80829V21.0484H36.9137V15.5933C38.0683 14.567 38.7964 13.0717 38.7964 11.4054C38.7962 8.31142 36.288 5.80313 33.1942 5.80313Z" fill="white"/>
</g>
<defs>
<clipPath id="clip0">
<rect width="55" height="55" fill="white"/>
</clipPath>
</defs>
</svg>
