<svg width="55" height="55" viewBox="0 0 55 55" fill="none" xmlns="http://www.w3.org/2000/svg">
<g clip-path="url(#clip0)">
<path d="M22.5222 48.8467C22.8631 48.8467 23.1395 48.5703 23.1395 48.2294C23.1395 47.8885 22.8631 47.6122 22.5222 47.6122C22.1813 47.6122 21.905 47.8885 21.905 48.2294C21.905 48.5703 22.1813 48.8467 22.5222 48.8467Z" fill="#515151"/>
<path d="M22.5222 51.2189C22.8631 51.2189 23.1395 50.9425 23.1395 50.6016C23.1395 50.2607 22.8631 49.9844 22.5222 49.9844C22.1813 49.9844 21.905 50.2607 21.905 50.6016C21.905 50.9425 22.1813 51.2189 22.5222 51.2189Z" fill="#515151"/>
<path d="M32.4759 48.8467C32.8168 48.8467 33.0931 48.5703 33.0931 48.2294C33.0931 47.8885 32.8168 47.6122 32.4759 47.6122C32.135 47.6122 31.8586 47.8885 31.8586 48.2294C31.8586 48.5703 32.135 48.8467 32.4759 48.8467Z" fill="#515151"/>
<path d="M32.4759 51.2189C32.8168 51.2189 33.0931 50.9425 33.0931 50.6016C33.0931 50.2607 32.8168 49.9844 32.4759 49.9844C32.135 49.9844 31.8586 50.2607 31.8586 50.6016C31.8586 50.9425 32.135 51.2189 32.4759 51.2189Z" fill="#515151"/>
<mask id="mask0" mask-type="alpha" maskUnits="userSpaceOnUse" x="0" y="0" width="56" height="55">
<path d="M27.5009 54.9998C42.6886 54.9998 55.0008 42.6877 55.0008 27.4999C55.0008 12.3121 42.6886 0 27.5009 0C12.3131 0 0.000976562 12.3121 0.000976562 27.4999C0.000976562 42.6877 12.3131 54.9998 27.5009 54.9998Z" fill="#386895"/>
</mask>
<g mask="url(#mask0)">
<path d="M27.5009 54.9998C42.6886 54.9998 55.0008 42.6877 55.0008 27.4999C55.0008 12.3121 42.6886 0 27.5009 0C12.3131 0 0.000976562 12.3121 0.000976562 27.4999C0.000976562 42.6877 12.3131 54.9998 27.5009 54.9998Z" fill="#386895"/>
<g opacity="0.6">
<rect x="-6.25" y="-0.25" width="67.5" height="8.62745" fill="#E40303"/>
<rect x="-6.25" y="8.3775" width="67.5" height="9.70588" fill="#FF8C00"/>
<rect x="-6.25" y="18.0833" width="67.5" height="8.62745" fill="#FFED00"/>
<rect x="-6.25" y="26.7108" width="67.5" height="9.70588" fill="#008026"/>
<rect x="-6.25" y="36.4167" width="67.5" height="8.62745" fill="#004DFF"/>
<rect x="-6.25" y="45.0441" width="67.5" height="9.70588" fill="#750787"/>
</g>
<path d="M31.35 32H23.35V40H31.35V32Z" fill="#F3D8B6"/>
<path d="M31.35 32H27.35V40H31.35V32Z" fill="#5E372E"/>
<path d="M38.4316 40.7254L33.574 39.7539L32.7155 38.5007C32.5548 38.2661 32.2507 38.1777 31.9894 38.2897L31.0457 38.6961C28.783 39.671 26.2182 39.6687 23.9572 38.6897L23.0376 38.2916C22.7782 38.1785 22.4748 38.2634 22.3121 38.4949L21.4262 39.7538L16.5686 40.7253C14.0951 41.2201 12.3149 43.3916 12.3149 45.9138V52.4286C16.6663 55.3163 21.8862 56.9998 27.5 56.9998C33.1137 56.9998 38.3336 55.3163 42.6851 52.4285V45.9137C42.6851 43.3915 40.9049 41.22 38.4316 40.7254Z" fill="#E2E2E2"/>
<path d="M20.1236 55.9946C22.4714 56.6474 24.9441 56.9998 27.5 56.9998C30.0559 56.9998 32.5287 56.6473 34.8766 55.9946V40.0143L33.5741 39.7537L32.7155 38.5005C32.5548 38.2659 32.2507 38.1775 31.9895 38.2894L31.0458 38.6961C28.7831 39.671 26.2183 39.6687 23.9573 38.6897L23.0376 38.2916C22.7782 38.1785 22.4748 38.2634 22.3121 38.4949L21.4262 39.7538L20.1238 40.0142V55.9946H20.1236Z" fill="#FCFCFC"/>
<path d="M20.1236 55.9946C22.4714 56.6474 24.9441 56.9998 27.5 56.9998C30.0559 56.9998 32.5287 56.6473 34.8766 55.9946V40.0143L33.5741 39.7537L32.7155 38.5005C32.5548 38.2659 32.2507 38.1775 31.9895 38.2894L31.0458 38.6961C28.7831 39.671 26.2183 39.6687 23.9573 38.6897L23.0376 38.2916C22.7782 38.1785 22.4748 38.2634 22.3121 38.4949L21.4262 39.7538L20.1238 40.0142V55.9946H20.1236Z" fill="#FCFCFC"/>
<path d="M33.574 39.7537L32.7155 38.5005C32.5548 38.2659 32.2507 38.1775 31.9895 38.2894L31.0458 38.6961C29.8659 39.2045 28.6041 39.4444 27.3459 39.4216V56.997C27.3974 56.9973 27.4485 56.9996 27.5002 56.9996C30.0561 56.9996 32.5289 56.6471 34.8768 55.9944V40.0141L33.574 39.7537Z" fill="#EFEFEF"/>
<path d="M22.5222 46.1041C22.8631 46.1041 23.1395 45.8278 23.1395 45.4869C23.1395 45.146 22.8631 44.8696 22.5222 44.8696C22.1813 44.8696 21.905 45.146 21.905 45.4869C21.905 45.8278 22.1813 46.1041 22.5222 46.1041Z" fill="#515151"/>
<path d="M22.5222 48.4763C22.8631 48.4763 23.1395 48.2 23.1395 47.8591C23.1395 47.5182 22.8631 47.2418 22.5222 47.2418C22.1813 47.2418 21.905 47.5182 21.905 47.8591C21.905 48.2 22.1813 48.4763 22.5222 48.4763Z" fill="#515151"/>
<path d="M32.4759 46.1041C32.8168 46.1041 33.0931 45.8278 33.0931 45.4869C33.0931 45.146 32.8168 44.8696 32.4759 44.8696C32.135 44.8696 31.8586 45.146 31.8586 45.4869C31.8586 45.8278 32.135 46.1041 32.4759 46.1041Z" fill="#515151"/>
<path d="M32.4759 48.4763C32.8168 48.4763 33.0931 48.2 33.0931 47.8591C33.0931 47.5182 32.8168 47.2418 32.4759 47.2418C32.135 47.2418 31.8586 47.5182 31.8586 47.8591C31.8586 48.2 32.135 48.4763 32.4759 48.4763Z" fill="#515151"/>
<path d="M36.7727 24.4248C36.8192 23.9947 36.8435 23.5709 36.8435 23.1575C36.8435 17.6895 32.6602 13.2568 27.5 13.2568C22.3398 13.2568 18.1565 17.6895 18.1565 23.1575C18.1565 23.5709 18.1807 23.9947 18.2273 24.4248C17.3209 24.6603 16.8896 26.0546 17.2643 27.5467C17.6401 29.0436 18.6839 30.0714 19.5961 29.8424C19.6793 29.8215 19.7568 29.788 19.8317 29.7486C21.5203 33.1376 24.3248 35.8871 27.5 35.8871C30.6752 35.8871 33.4799 33.1376 35.1683 29.7486C35.243 29.788 35.3209 29.8217 35.4038 29.8424C36.3161 30.0714 37.36 29.0436 37.7356 27.5467C38.1103 26.0546 37.679 24.6603 36.7727 24.4248Z" fill="#F3DBC4"/>
<path d="M36.7728 24.4248C36.8193 23.9947 36.8435 23.5709 36.8435 23.1575C36.8435 17.6895 32.6602 13.2568 27.5 13.2568C27.4484 13.2568 27.3974 13.2601 27.3458 13.2609V35.8829C27.3971 35.8844 27.4484 35.8869 27.5 35.8869C30.6752 35.8869 33.48 33.1373 35.1683 29.7485C35.2431 29.7879 35.321 29.8216 35.4039 29.8423C36.3161 30.0713 37.36 29.0434 37.7357 27.5466C38.1104 26.0546 37.6791 24.6603 36.7728 24.4248Z" fill="#714137"/>
<path d="M18.5 25.1599C19.7928 25.832 20.3456 28.1599 20.3456 28.1599C20.3456 28.1599 27.5665 22.9716 27 21C26.4335 19.0284 24.5 19.5228 24.5 19.5228C26.3947 20.1833 25.9248 19.52 27.5 19.5228V13.1599C18.6121 13.2089 17.21 24.4893 18.5 25.1599Z" fill="#3A3A3A"/>
<path d="M36.5873 25.1599C35.2944 25.832 34.7416 28.1599 34.7416 28.1599C34.7416 28.1599 31.0208 23.1315 31.5873 21.1599C32.1539 19.1883 30.5873 19.5228 30.5873 19.5228C28.6926 20.1833 29.1624 19.52 27.5873 19.5228V13.1599C36.4752 13.2089 37.8773 24.4893 36.5873 25.1599Z" fill="#3A3A3A"/>
<path d="M38.7962 11.4054C38.7962 8.31132 36.288 5.80313 33.1939 5.80313C32.1543 5.80313 31.1814 6.08737 30.347 6.58086C29.5125 6.08737 28.5396 5.80313 27.5 5.80313C26.4603 5.80313 25.4874 6.08737 24.653 6.58086C23.8185 6.08737 22.8456 5.80313 21.806 5.80313C18.7119 5.80313 16.2037 8.31132 16.2037 11.4054C16.2037 13.0717 16.9318 14.567 18.0865 15.5931V21.0485H36.9136V15.5933C38.0681 14.567 38.7962 13.0716 38.7962 11.4054Z" fill="#EFEFEF"/>
<path d="M33.1942 5.80313C32.1543 5.80313 31.1816 6.08737 30.3472 6.58086C29.5127 6.08737 28.5398 5.80313 27.5002 5.80313C27.4483 5.80313 27.3974 5.807 27.3459 5.80829V21.0484H36.9137V15.5933C38.0683 14.567 38.7964 13.0717 38.7964 11.4054C38.7962 8.31142 36.288 5.80313 33.1942 5.80313Z" fill="white"/>
</g>
</g>
<defs>
<clipPath id="clip0">
<rect width="55" height="55" fill="white"/>
</clipPath>
</defs>
</svg>
