<svg width="55" height="55" viewBox="0 0 55 55" fill="none" xmlns="http://www.w3.org/2000/svg">
<g clip-path="url(#clip0)">
<mask id="mask0" mask-type="alpha" maskUnits="userSpaceOnUse" x="0" y="0" width="56" height="55">
<path d="M27.5009 54.9998C42.6887 54.9998 55.0008 42.6877 55.0008 27.4999C55.0008 12.3121 42.6887 0 27.5009 0C12.3131 0 0.00100708 12.3121 0.00100708 27.4999C0.00100708 42.6877 12.3131 54.9998 27.5009 54.9998Z" fill="#386895"/>
</mask>
<g mask="url(#mask0)">
<path d="M27.5009 54.9998C42.6887 54.9998 55.0008 42.6877 55.0008 27.4999C55.0008 12.3121 42.6887 0 27.5009 0C12.3131 0 0.00100708 12.3121 0.00100708 27.4999C0.00100708 42.6877 12.3131 54.9998 27.5009 54.9998Z" fill="#386895"/>
<path d="M39.1887 30.0482C39.1887 30.0195 39.1886 29.9906 39.1886 29.9629C39.1886 20.7567 29.9959 14 27.6027 14C24.9661 14 16.1944 20.7567 16.1944 29.9629C16.1944 29.9906 16.1944 30.0195 16.1943 30.0482C14.324 30.7865 13 32.6087 13 34.7414C13 37.5279 15.2588 39.7866 18.0452 39.7866C21.8011 39.7866 24.8102 41.8655 27.6025 41.8564C30.3949 41.8473 33.4696 39.7866 37.3376 39.7866C39.991 39.7866 42.3827 37.5279 42.3827 34.7414C42.383 32.6086 41.059 30.7865 39.1887 30.0482Z" fill="#333333"/>
<path d="M39.1887 30.0482C39.1887 30.0195 39.1887 29.9906 39.1887 29.9629C39.1887 20.841 30.1646 14.1251 27.6713 14.0029V41.8547C30.4454 41.8127 33.5014 39.7866 37.3378 39.7866C39.9912 39.7866 42.383 37.5279 42.383 34.7415C42.383 32.6086 41.059 30.7864 39.1887 30.0482Z" fill="#333333"/>
<path d="M32.9471 47.1811C32.9471 47.1811 31.1877 44.94 31.1877 37.2787H27.9958H27.3871H24.1953C24.1953 44.94 22.4359 47.1811 22.4359 47.1811C22.4359 52.9452 25.9444 53.1224 27.3871 53.6597V53.8467C27.3871 53.8467 27.4993 53.8238 27.6915 53.764C27.8836 53.8238 27.9958 53.8467 27.9958 53.8467V53.6597C29.4386 53.1224 32.9471 52.9451 32.9471 47.1811Z" fill="#EEC8A2"/>
<path d="M31.1878 37.2783H27.996L27.6714 37.2753V53.7605C27.8636 53.8204 27.996 53.8462 27.996 53.8462V53.6592C29.4387 53.122 32.9472 52.9447 32.9472 47.1806C32.9471 47.1807 31.1878 44.9396 31.1878 37.2783Z" fill="#5E372E"/>
<path d="M34.1826 19.9285C34.3201 20.1787 34.4461 20.4343 34.5619 20.6936C34.4474 20.4171 34.3213 20.1607 34.1826 19.9285Z" fill="#F3DBC4"/>
<path d="M24.5769 25.2435C24.3796 24.905 24.1982 24.581 24.0297 24.2683C23.2058 26.0565 21.4242 28.2123 19.9409 29.2151C20.0943 31.5375 20.4795 33.5445 20.9191 34.356C22.0194 36.3874 24.4748 39.0964 27.6919 39.0964C30.9082 39.0964 33.3634 36.3874 34.464 34.356C34.8701 33.6062 35.2298 31.8357 35.4033 29.7388C34.0305 29.6541 26.7842 29.0318 24.5769 25.2435Z" fill="#EDCEAE"/>
<path d="M27.6713 27.8891V39.0959C27.6782 39.0959 27.6849 39.0964 27.6917 39.0964C30.9081 39.0964 33.3632 36.3874 34.4639 34.356C34.87 33.6061 35.2298 31.8356 35.4032 29.7386C34.4489 29.6799 30.6408 29.3598 27.6713 27.8891Z" fill="#714137"/>
<path d="M34.1823 19.928C34.3199 20.1785 34.4461 20.4343 34.562 20.6938C34.4473 20.417 34.3212 20.1605 34.1823 19.928Z" fill="#EDCEAE"/>
<path d="M39.1124 11.4054C39.1124 8.31132 36.6043 5.80313 33.5102 5.80313C32.4706 5.80313 31.4977 6.08737 30.6632 6.58086C29.8288 6.08737 28.8558 5.80313 27.8162 5.80313C26.7766 5.80313 25.8037 6.08737 24.9692 6.58086C24.1348 6.08737 23.1619 5.80313 22.1222 5.80313C19.0282 5.80313 16.52 8.31132 16.52 11.4054C16.52 13.0717 17.2481 14.567 18.4028 15.5931V21.0485H37.2299V15.5933C38.3843 14.567 39.1124 13.0716 39.1124 11.4054Z" fill="#EFEFEF"/>
<path d="M33.5183 5.80313C32.4784 5.80313 31.5057 6.08737 30.6713 6.58086C29.8368 6.08737 28.8639 5.80313 27.8243 5.80313C27.7724 5.80313 27.7215 5.807 27.67 5.80829V21.0484H37.2377V15.5933C38.3924 14.567 39.1205 13.0717 39.1205 11.4054C39.1203 8.31142 36.6121 5.80313 33.5183 5.80313Z" fill="white"/>
<path d="M38.1167 45.7254L33.2591 44.7539L32.4006 43.5007C32.2399 43.2661 31.9358 43.1777 31.6746 43.2897L30.7309 43.6961C28.4681 44.671 25.9033 44.6687 23.6423 43.6897L22.7227 43.2916C22.4633 43.1785 22.1599 43.2634 21.9972 43.4949L21.1113 44.7538L16.2537 45.7253C13.7802 46.2201 12 48.3916 12 50.9138V57.4286C16.3514 60.3163 21.5714 61.9998 27.1851 61.9998C32.7988 61.9998 38.0188 60.3163 42.3702 57.4285V50.9137C42.3702 48.3915 40.59 46.22 38.1167 45.7254Z" fill="#E2E2E2"/>
<path d="M19.8087 60.9946C22.1565 61.6474 24.6293 61.9998 27.1851 61.9998C29.741 61.9998 32.2139 61.6473 34.5618 60.9946V45.0143L33.2592 44.7537L32.4007 43.5005C32.24 43.2659 31.9358 43.1775 31.6746 43.2894L30.7309 43.6961C28.4682 44.671 25.9034 44.6687 23.6424 43.6897L22.7227 43.2916C22.4633 43.1785 22.16 43.2634 21.9972 43.4949L21.1113 44.7538L19.8089 45.0142V60.9946H19.8087Z" fill="#FCFCFC"/>
<path d="M33.2592 44.7537L32.4006 43.5005C32.2399 43.2659 31.9358 43.1775 31.6746 43.2894L30.7309 43.6961C29.5511 44.2045 28.2892 44.4444 27.0311 44.4216V61.997C27.0825 61.9973 27.1337 61.9996 27.1853 61.9996C29.7412 61.9996 32.214 61.6471 34.562 60.9944V45.0141L33.2592 44.7537Z" fill="#EFEFEF"/>
<path d="M22.2073 50.1041C22.5482 50.1041 22.8246 49.8278 22.8246 49.4869C22.8246 49.146 22.5482 48.8696 22.2073 48.8696C21.8664 48.8696 21.5901 49.146 21.5901 49.4869C21.5901 49.8278 21.8664 50.1041 22.2073 50.1041Z" fill="#515151"/>
<path d="M22.2073 52.4763C22.5482 52.4763 22.8246 52.2 22.8246 51.8591C22.8246 51.5182 22.5482 51.2418 22.2073 51.2418C21.8664 51.2418 21.5901 51.5182 21.5901 51.8591C21.5901 52.2 21.8664 52.4763 22.2073 52.4763Z" fill="#515151"/>
<path d="M32.161 50.1041C32.5019 50.1041 32.7782 49.8278 32.7782 49.4869C32.7782 49.146 32.5019 48.8696 32.161 48.8696C31.8201 48.8696 31.5438 49.146 31.5438 49.4869C31.5438 49.8278 31.8201 50.1041 32.161 50.1041Z" fill="#515151"/>
<path d="M32.161 52.4763C32.5019 52.4763 32.7782 52.2 32.7782 51.8591C32.7782 51.5182 32.5019 51.2418 32.161 51.2418C31.8201 51.2418 31.5438 51.5182 31.5438 51.8591C31.5438 52.2 31.8201 52.4763 32.161 52.4763Z" fill="#515151"/>
</g>
</g>
<defs>
<clipPath id="clip0">
<rect width="55" height="55" fill="white"/>
</clipPath>
</defs>
</svg>
