<svg width="15" height="15" viewBox="0 0 15 15" fill="none" xmlns="http://www.w3.org/2000/svg">
<g clip-path="url(#clip0)">
<path d="M6.25747 4.2201L0.172042 10.2929C-0.0570297 10.5215 -0.0573813 10.8925 0.171193 11.1215C0.399767 11.3506 0.770753 11.351 0.999825 11.1224L7.08569 5.04917C7.31415 4.82072 7.68587 4.82072 7.91476 5.04961L14.0002 11.1224C14.2293 11.351 14.6002 11.3506 14.8288 11.1215C14.943 11.0072 15 10.8574 15 10.7076C15 10.5575 14.9426 10.4073 14.8279 10.2929L8.74295 4.22054C8.05758 3.53517 6.9424 3.53517 6.25747 4.2201Z" fill="black"/>
</g>
<defs>
<clipPath id="clip0">
<rect y="15" width="15" height="15" transform="rotate(-90 0 15)" fill="white"/>
</clipPath>
</defs>
</svg>
