<svg width="15" height="15" viewBox="0 0 15 15" fill="none" xmlns="http://www.w3.org/2000/svg">
<g clip-path="url(#clip0)">
<path d="M4.22012 8.74255L10.2929 14.828C10.5215 15.057 10.8925 15.0574 11.1215 14.8288C11.3506 14.6002 11.351 14.2293 11.1224 14.0002L5.04919 7.91433C4.82073 7.68587 4.82073 7.31415 5.04963 7.08525L11.1224 0.999828C11.351 0.770756 11.3506 0.399769 11.1215 0.171195C11.0072 0.0570547 10.8574 1.50204e-05 10.7076 1.50204e-05C10.5575 1.50204e-05 10.4074 0.057377 10.2929 0.172074L4.22056 6.25706C3.53518 6.94243 3.53518 8.05762 4.22012 8.74255Z" fill="black"/>
</g>
<defs>
<clipPath id="clip0">
<rect x="15" y="15" width="15" height="15" transform="rotate(-180 15 15)" fill="white"/>
</clipPath>
</defs>
</svg>
