<svg width="15" height="15" viewBox="0 0 15 15" fill="none" xmlns="http://www.w3.org/2000/svg">
<g clip-path="url(#clip0)">
<path d="M8.74253 10.7799L14.828 4.70713C15.057 4.47849 15.0574 4.10751 14.8288 3.87849C14.6002 3.64942 14.2292 3.64904 14.0002 3.87761L7.91431 9.95083C7.68585 10.1793 7.31413 10.1793 7.08524 9.95039L0.999813 3.87761C0.770741 3.64904 0.399754 3.64942 0.17118 3.87849C0.0570395 3.99284 -2.38411e-07 4.14263 -2.38411e-07 4.29237C-2.38411e-07 4.44252 0.0573617 4.59266 0.172059 4.70713L6.25705 10.7795C6.94242 11.4648 8.0576 11.4648 8.74253 10.7799Z" fill="black"/>
</g>
<defs>
<clipPath id="clip0">
<rect x="15" width="15" height="15" transform="rotate(90 15 0)" fill="white"/>
</clipPath>
</defs>
</svg>
