<svg xmlns="http://www.w3.org/2000/svg" width="45" height="45"><path d="M 41.814 25.814 L 39.179 25.814 L 39.179 9.757 C 39.179 5.83 35.984 2.635 32.057 2.635 L 12.965 2.635 C 9.037 2.635 5.842 5.83 5.842 9.757 L 5.842 25.79 L 3.207 25.79 L 3.207 9.757 C 3.207 4.377 7.584 0 12.964 0 L 32.057 0 C 37.437 0 41.814 4.377 41.814 9.757 Z" fill="rgb(243,149,62)"></path><path d="M 32.057 0 L 22.617 0 L 22.617 2.635 L 32.057 2.635 C 35.984 2.635 39.179 5.83 39.179 9.757 L 39.179 25.814 L 41.814 25.814 L 41.814 9.757 C 41.814 4.377 37.437 0 32.057 0 Z" fill="rgb(236,108,50)"></path><path d="M 26.758 10.724 L 18.301 10.724 L 19.479 16.879 L 25.58 16.879 Z" fill="rgb(243,149,62)"></path><path d="M 22.617 10.724 L 22.617 16.879 L 25.58 16.879 L 26.758 10.724 Z" fill="rgb(236,108,50)"></path><path d="M 39.283 24.496 C 38.817 22.048 37.052 19.819 34.198 18.12 C 31.053 16.248 26.9 15.216 22.503 15.216 C 18.105 15.216 13.952 16.247 10.807 18.12 C 7.953 19.819 6.188 22.048 5.722 24.496 L 0.088 24.496 L 2.028 31.327 L 42.972 31.327 L 44.912 24.496 Z" fill="rgb(0,66,68)"></path><path d="M 39.283 24.496 C 38.817 22.048 37.052 19.819 34.198 18.12 C 31.081 16.264 26.972 15.235 22.617 15.217 L 22.617 31.327 L 42.972 31.327 L 44.912 24.496 Z" fill="rgb(0,44,60)"></path><path d="M 5.722 24.496 L 7.049 41.107 C 7.26 43.326 9.101 45 11.331 45 L 33.674 45 C 35.904 45 37.745 43.326 37.956 41.107 L 39.283 24.496 Z" fill="rgb(0,83,87)"></path><path d="M 22.617 24.496 L 22.617 45 L 33.674 45 C 35.904 45 37.745 43.326 37.956 41.107 L 39.283 24.496 Z" fill="rgb(0,66,68)"></path></svg>