<svg xmlns="http://www.w3.org/2000/svg" width="45" height="45"><g><path d="M 0 22.524 C 0 10.084 10.084 0 22.524 0 C 34.963 0 45.048 10.084 45.048 22.524 C 45.048 34.963 34.963 45.048 22.524 45.048 C 10.084 45.048 0 34.963 0 22.524 Z" fill="rgb(224,91,73)"></path><path d="M 28.906 13.374 L 28.671 13.374 L 26.512 11.215 C 25.621 10.23 24.307 9.62 22.852 9.62 C 20.412 9.62 18.394 11.356 17.925 13.702 C 17.362 13.514 16.799 13.374 16.189 13.374 C 13.42 13.374 11.215 15.626 11.215 18.348 C 11.215 19.708 11.778 20.975 12.67 21.867 L 16.189 25.386 L 16.189 35.381 L 25.621 44.813 C 35.1 43.546 42.701 36.32 44.578 27.029 L 32.613 15.063 C 31.721 14.03 30.36 13.374 28.906 13.374 Z" fill="rgb(224,91,73)"></path></g><path d="M 28.906 13.374 L 28.671 13.374 L 26.512 11.215 C 25.621 10.23 24.307 9.62 22.852 9.62 C 20.412 9.62 18.394 11.356 17.925 13.702 C 17.362 13.514 16.799 13.374 16.189 13.374 C 13.42 13.374 11.215 15.626 11.215 18.348 C 11.215 19.708 11.778 20.975 12.67 21.867 L 16.189 25.386 L 16.189 35.381 L 25.621 44.813 C 35.1 43.546 42.701 36.32 44.578 27.029 L 32.613 15.063 C 31.721 14.03 30.36 13.374 28.906 13.374 Z" fill="rgb(0,0,0)" opacity="0.1"></path><path d="M 16.142 23.368 C 13.374 23.368 11.168 21.116 11.168 18.394 C 11.168 15.626 13.42 13.42 16.142 13.42 C 16.752 13.42 17.362 13.514 17.878 13.749 C 18.301 11.45 20.365 9.666 22.805 9.666 C 25.199 9.666 27.169 11.356 27.686 13.561 C 28.061 13.467 28.483 13.42 28.906 13.42 C 31.674 13.42 33.88 15.673 33.88 18.394 C 33.88 21.163 31.252 23.368 28.483 23.368 L 28.483 35.428 L 16.142 35.428 Z" fill="rgb(235,240,243)"></path><path d="M 22.805 35.428 L 16.142 35.428 L 16.142 23.368 C 13.374 23.368 11.168 21.116 11.168 18.394 C 11.168 15.626 13.42 13.42 16.142 13.42 C 16.752 13.42 17.362 13.514 17.878 13.749 C 18.301 11.45 20.365 9.666 22.805 9.666 Z" fill="rgb(225,230,233)"></path><path d="M 16.142 31.205 L 28.484 31.205 L 28.484 33.129 L 16.142 33.129 Z" fill="rgb(220,135,68)"></path><path d="M 16.142 27.544 L 28.484 27.544 L 28.484 29.468 L 16.142 29.468 Z" fill="rgb(47,72,89)"></path></svg>