<svg xmlns="http://www.w3.org/2000/svg" width="26" height="26"><path d="M 22.189 3.808 C 19.734 1.352 16.47 0 12.998 0 C 12.788 0 12.617 0.171 12.617 0.381 C 12.617 0.591 12.788 0.762 12.998 0.762 C 16.266 0.762 19.339 2.035 21.65 4.346 C 23.961 6.658 25.234 9.731 25.234 13 C 25.234 16.269 23.961 19.342 21.65 21.654 C 19.339 23.965 16.266 25.238 12.998 25.238 C 9.73 25.238 6.657 23.965 4.346 21.654 C 2.034 19.342 0.762 16.269 0.762 13 C 0.762 10.016 1.848 7.141 3.82 4.906 C 5.775 2.69 8.456 1.257 11.369 0.869 C 11.577 0.841 11.724 0.65 11.696 0.442 C 11.668 0.233 11.477 0.087 11.268 0.114 C 8.173 0.526 5.325 2.049 3.249 4.402 C 1.154 6.776 0 9.83 0 13 C 0 16.472 1.352 19.737 3.807 22.192 C 6.262 24.648 9.526 26 12.998 26 C 16.47 26 19.734 24.648 22.189 22.192 C 24.644 19.737 25.996 16.472 25.996 13 C 25.996 9.528 24.644 6.263 22.189 3.808 Z M 22.189 3.808" fill="rgb(255,255,255)"></path><path d="M 14.374 11.917 C 14.584 11.917 14.755 11.747 14.755 11.536 L 14.755 7.289 C 14.755 6.762 14.326 6.333 13.799 6.333 L 12.197 6.333 C 11.67 6.333 11.241 6.762 11.241 7.289 L 11.241 14.545 C 11.241 15.072 11.67 15.5 12.197 15.5 L 13.799 15.5 C 14.326 15.5 14.755 15.072 14.755 14.545 L 14.755 13.113 C 14.755 12.902 14.584 12.732 14.374 12.732 C 14.164 12.732 13.993 12.902 13.993 13.113 L 13.993 14.545 C 13.993 14.652 13.906 14.739 13.799 14.739 L 12.197 14.739 C 12.09 14.739 12.003 14.652 12.003 14.545 L 12.003 7.289 C 12.003 7.182 12.09 7.095 12.197 7.095 L 13.799 7.095 C 13.906 7.095 13.993 7.182 13.993 7.289 L 13.993 11.536 C 13.993 11.747 14.163 11.917 14.374 11.917 Z M 12.998 16.561 C 12.029 16.561 11.241 17.349 11.241 18.318 C 11.241 19.287 12.029 20.075 12.998 20.075 C 13.967 20.075 14.755 19.287 14.755 18.318 C 14.755 17.349 13.967 16.561 12.998 16.561 Z M 12.998 19.313 C 12.449 19.313 12.003 18.867 12.003 18.318 C 12.003 17.769 12.449 17.323 12.998 17.323 C 13.546 17.323 13.993 17.769 13.993 18.318 C 13.993 18.867 13.547 19.313 12.998 19.313 Z M 12.998 19.313" fill="rgb(255,255,255)"></path></svg>