<svg width="512" height="512" viewBox="0 0 512 512" fill="none" xmlns="http://www.w3.org/2000/svg">
<path d="M54.211 249.7C54.211 249.7 74.439 279.417 116.835 304.571C116.835 304.571 86.13 45.069 286.193 0C234.936 188.121 351.393 241.174 393.844 141.786C464.737 236.437 410.91 319.015 410.91 319.015C439.979 323.203 464.397 291.445 464.397 291.445C464.615 295.357 464.737 299.296 464.737 303.263C464.738 418.545 371.283 512 256 512C140.717 512 47.262 418.545 47.262 303.262C47.262 284.744 49.686 266.794 54.211 249.7Z" fill="#FF6536"/>
<path d="M117.761 332.693C117.761 332.693 131.618 353.008 160.662 370.203C160.662 370.203 139.627 192.809 276.685 162C241.57 290.598 321.351 326.865 350.433 258.924C399 323.627 362.125 380.077 362.125 380.077C382.039 382.94 398.767 361.23 398.767 361.23C398.916 363.904 399 366.597 399 369.309C399.001 448.115 334.977 512 256 512C177.023 512 113 448.115 113 369.308C113 356.649 114.661 344.379 117.761 332.693Z" fill="#FBFF36" fill-opacity="0.5"/>
<path d="M168.98 399.293C168.98 399.293 177.653 412.062 195.831 422.87C195.831 422.87 182.665 311.366 268.446 292C246.469 372.833 296.402 395.629 314.603 352.924C345 393.594 321.921 429.077 321.921 429.077C334.385 430.876 344.854 417.23 344.854 417.23C344.948 418.911 345 420.604 345 422.308C345 471.844 304.93 512 255.5 512C206.071 512 166 471.844 166 422.308C166 414.351 167.039 406.638 168.98 399.293Z" fill="#429AE2" fill-opacity="0.5"/>
<path d="M216.348 461.282C216.348 461.282 220.273 467.028 228.499 471.892C228.499 471.892 222.541 421.715 261.358 413C251.413 449.375 274.009 459.633 282.245 440.416C296 458.717 285.556 474.685 285.556 474.685C291.196 475.494 295.934 469.354 295.934 469.354C295.976 470.11 296 470.872 296 471.639C296 493.93 277.868 512 255.5 512C233.132 512 215 493.93 215 471.639C215 468.058 215.47 464.587 216.348 461.282Z" fill="#75FAFD" fill-opacity="0.5"/>
</svg>
