<svg width="25" height="30" viewBox="0 0 25 30" fill="none" xmlns="http://www.w3.org/2000/svg">
<path d="M24.1062 14.6309C24.1062 14.6309 22.9184 16.3721 20.4289 17.846C20.4289 17.846 22.2319 2.64076 10.4842 0C13.494 11.0227 6.6556 14.1313 4.16286 8.30777C1.90735e-06 13.8537 3.16074 18.6923 3.16074 18.6923C1.4538 18.9377 0.0199661 17.0769 0.0199661 17.0769C0.00716591 17.3061 1.90735e-06 17.5369 1.90735e-06 17.7693C-5.72205e-05 24.5241 5.48765 30 12.2571 30C19.0266 30 24.5143 24.5241 24.5143 17.7693C24.5143 16.6842 24.3719 15.6325 24.1062 14.6309Z" fill="#F39551"/>
<path d="M5.59036 21.6492C5.59036 21.6492 6.25866 22.5953 7.65935 23.3961C7.65935 23.3961 6.64491 15.1344 13.2546 13.6996C11.5612 19.6887 15.4087 21.3778 16.8112 18.2136C19.1534 21.227 17.3751 23.856 17.3751 23.856C18.3355 23.9893 19.1422 22.9782 19.1422 22.9782C19.1494 23.1028 19.1534 23.2282 19.1534 23.3545C19.1535 27.0247 16.0659 30 12.2571 30C8.44837 30 5.36078 27.0247 5.36078 23.3545C5.36078 22.7649 5.44086 22.1934 5.59036 21.6492Z" fill="#FABD5E"/>
</svg>
