<svg width="25" height="30" viewBox="0 0 25 30" fill="none" xmlns="http://www.w3.org/2000/svg">
<path d="M23.8986 18.2699C23.637 24.5173 18.5006 29.5 12.2046 29.5C5.74132 29.5 0.5 24.249 0.5 17.7693C0.5 17.0783 0.559878 16.4016 0.674298 15.7439C0.758276 15.8356 0.850132 15.9331 0.949925 16.0352C1.57994 16.6798 2.5289 17.5127 3.81229 18.2757L4.68318 18.7935L4.5644 17.7875L4.56438 17.7874L4.56437 17.7873L4.56423 17.7861L4.56347 17.7794L4.56028 17.7499C4.55746 17.7232 4.55335 17.6825 4.54842 17.6288C4.53854 17.5213 4.52536 17.3616 4.51256 17.1563C4.48695 16.7457 4.46296 16.1535 4.47006 15.4338C4.48427 13.9922 4.62317 12.0496 5.11796 10.0324C6.05901 6.19576 8.25931 2.16752 13.2771 0.695567C12.0661 5.8143 12.9674 9.3091 14.7339 10.8482C15.6825 11.6746 16.8647 11.9089 17.9888 11.4843C18.894 11.1424 19.7112 10.3938 20.3378 9.28817C21.8835 11.6807 22.053 13.8759 21.8223 15.5099C21.6953 16.4095 21.4457 17.145 21.2289 17.6536C21.1207 17.9075 21.0211 18.1038 20.95 18.2344C20.9144 18.2997 20.886 18.3484 20.8673 18.3797C20.858 18.3953 20.851 18.4065 20.8468 18.4132L20.8428 18.4197L20.8426 18.4199L20.8425 18.4201L20.8423 18.4204L20.8421 18.4206L20.4163 19.0754L21.1905 19.1872C22.2387 19.3385 23.1578 18.8385 23.7663 18.3741C23.8117 18.3394 23.8558 18.3046 23.8986 18.2699Z" fill="white" stroke="#EEEEEE"/>
<path d="M7.23864 25.2511C7.60389 27.6553 9.6868 29.5 12.2046 29.5C14.9802 29.5 17.2273 27.2581 17.2273 24.4962C17.2273 24.3874 17.2238 24.2794 17.2169 24.1724C16.9398 24.4218 16.5822 24.7002 16.141 24.9611L15.2708 25.4756L15.39 24.4722L15.39 24.472L15.39 24.472L15.39 24.4717L15.3902 24.4699L15.3915 24.4583C15.3926 24.4475 15.3944 24.4304 15.3965 24.4075C15.4007 24.3617 15.4065 24.2926 15.4121 24.2031C15.4233 24.024 15.4339 23.7643 15.4308 23.448C15.4245 22.8132 15.3629 21.9616 15.1456 21.0807C14.7625 19.5273 13.919 17.9483 12.0881 17.2289C12.4858 19.325 12.0907 20.8518 11.2388 21.5899C10.7386 22.0233 10.0992 22.1539 9.49126 21.9255C9.13004 21.7898 8.8075 21.5387 8.53896 21.1946C8.0802 22.0644 8.03901 22.8462 8.12341 23.4406C8.17681 23.8167 8.28177 24.1241 8.37233 24.3353C8.41748 24.4407 8.45858 24.521 8.48699 24.5729C8.50117 24.5988 8.51213 24.6175 8.51875 24.6285L8.52528 24.6391L8.52538 24.6393L8.52572 24.6398L8.52583 24.64L8.95417 25.2949L8.17704 25.4065C7.82263 25.4573 7.50215 25.3745 7.23864 25.2511Z" fill="white" stroke="#EEEEEE"/>
</svg>
