<svg width="25" height="30" viewBox="0 0 25 30" fill="none" xmlns="http://www.w3.org/2000/svg">
<path d="M0.406297 14.6309C0.406297 14.6309 1.589 16.3721 4.06782 17.846C4.06782 17.846 2.27255 2.64076 13.9699 0C10.973 11.0227 17.7821 14.1313 20.2641 8.30777C24.4091 13.8537 21.2619 18.6923 21.2619 18.6923C22.9615 18.9377 24.3892 17.0769 24.3892 17.0769C24.402 17.3061 24.4091 17.5369 24.4091 17.7693C24.4092 24.5241 18.945 30 12.2046 30C5.46416 30 0 24.5241 0 17.7693C0 16.6842 0.141727 15.6325 0.406297 14.6309Z" fill="#88B8FF"/>
<path d="M17.5434 23.0839C17.5434 23.0839 17.0083 23.8674 15.8865 24.5307C15.8865 24.5307 16.6989 17.6883 11.4057 16.5C12.7619 21.4602 9.68067 22.8591 8.55751 20.2385C6.68184 22.7342 8.10598 24.9115 8.10598 24.9115C7.33688 25.022 6.69084 24.1846 6.69084 24.1846C6.68507 24.2877 6.68184 24.3916 6.68184 24.4962C6.68181 27.5359 9.15442 30 12.2046 30C15.2547 30 17.7273 27.5359 17.7273 24.4962C17.7273 24.0079 17.6632 23.5346 17.5434 23.0839Z" fill="#C3DBFF"/>
</svg>
