<svg width="30" height="30" viewBox="0 0 30 30" fill="none" xmlns="http://www.w3.org/2000/svg">
<path d="M3.17645 14.6309C3.17645 14.6309 4.36169 16.3721 6.84583 17.846C6.84583 17.846 5.04671 2.64076 16.7691 0C13.7658 11.0227 20.5895 14.1313 23.0768 8.30777C27.2307 13.8537 24.0768 18.6923 24.0768 18.6923C25.78 18.9377 27.2108 17.0769 27.2108 17.0769C27.2236 17.3061 27.2307 17.5369 27.2307 17.7693C27.2308 24.5241 21.7549 30 15 30C8.24517 30 2.76929 24.5241 2.76929 17.7693C2.76929 16.6842 2.91132 15.6325 3.17645 14.6309Z" fill="#FF6536"/>
<path d="M22.7503 20.7785C22.7503 20.7785 22.0235 21.8233 20.5002 22.7076C20.5002 22.7076 21.6035 13.5845 14.4151 12C16.2568 18.6136 12.0725 20.4788 10.5472 16.9847C8 20.3122 9.93402 23.2154 9.93402 23.2154C8.88956 23.3626 8.01222 22.2461 8.01222 22.2461C8.00438 22.3836 8 22.5221 8 22.6616C7.99996 26.7145 11.3578 30 15.5 30C19.6421 30 23 26.7145 23 22.6616C23 22.0105 22.9129 21.3795 22.7503 20.7785Z" fill="#F39551"/>
</svg>
