<svg width="25" height="30" viewBox="0 0 25 30" fill="none" xmlns="http://www.w3.org/2000/svg">
<path d="M24.1368 14.6309C24.1368 14.6309 22.9475 16.3721 20.4549 17.846C20.4549 17.846 22.2602 2.64076 10.4975 0C13.5111 11.0227 6.66402 14.1313 4.16811 8.30777C-4.3869e-05 13.8537 3.16471 18.6923 3.16471 18.6923C1.4556 18.9377 0.0199451 17.0769 0.0199451 17.0769C0.00712776 17.3061 -4.3869e-05 17.5369 -4.3869e-05 17.7693C-0.000102997 24.5241 5.49459 30 12.2727 30C19.0507 30 24.5454 24.5241 24.5454 17.7693C24.5454 16.6842 24.4029 15.6325 24.1368 14.6309Z" fill="#C3DBFF"/>
<path d="M7.1831 22.8277C7.1831 22.8277 7.71608 23.6403 8.83317 24.3281C8.83317 24.3281 8.02413 17.2324 13.2956 16C11.945 21.1439 15.0135 22.5946 16.132 19.877C18 22.4651 16.5817 24.7231 16.5817 24.7231C17.3477 24.8376 17.991 23.9692 17.991 23.9692C17.9968 24.0762 18 24.1839 18 24.2923C18 27.4446 15.5376 30 12.5 30C9.46244 30 7 27.4446 7 24.2923C7 23.786 7.06387 23.2951 7.1831 22.8277Z" fill="#E4EFFF"/>
</svg>
