<svg width="30" height="30" viewBox="0 0 30 30" fill="none" xmlns="http://www.w3.org/2000/svg">
<g clip-path="url(#clip0)">
<path d="M10.8278 23.5568L10.8743 23.5477C12.016 23.3217 12.7585 22.213 12.5325 21.071L11.3357 15.0263L9.22192 15.4449L10.8278 23.5568Z" fill="#FCDA4F"/>
<path d="M11.7096 2.95917C9.28912 2.90855 7.2657 5.77956 7.19028 9.37212C7.11486 12.9647 9.01579 15.9182 11.4363 15.9691C13.8568 16.0199 15.8802 13.1489 15.9557 9.55636C16.0311 5.96381 14.1302 3.01004 11.7096 2.95917Z" fill="#CCC033"/>
<path d="M13.8684 7.82349C13.4753 5.83777 12.5951 4.13653 11.4767 2.96423C9.10807 3.09938 7.19878 6.01139 7.18815 9.5465C7.17778 13.0049 8.98836 15.7985 11.2841 15.962C13.4493 14.7983 14.5841 11.4383 13.8684 7.82349Z" fill="#99AF17"/>
<path d="M10.8278 23.5568L10.7812 23.5662C9.63953 23.7919 8.53076 23.0499 8.30475 21.908L7.10791 15.8633L9.22169 15.4447L10.8278 23.5568Z" fill="#FCDA4F"/>
<path d="M8.80483 9.05324C7.36629 5.76059 4.40139 3.87687 2.18283 4.84619C-0.035972 5.81551 -0.667928 9.27089 0.770614 12.5638C2.20941 15.8567 5.17431 17.7402 7.39287 16.7708C9.61142 15.8015 10.2436 12.3461 8.80483 9.05324Z" fill="#99AF17"/>
<path d="M13.0418 7.98774C12.2224 3.84751 9.28579 0.940816 6.48286 1.49558C3.67994 2.0506 2.07233 5.85676 2.89208 9.99699C3.71157 14.1372 6.64813 17.0439 9.45106 16.4889C12.2537 15.9341 13.8616 12.128 13.0418 7.98774Z" fill="#EACF32"/>
<path d="M5.64908 9.45058C4.96904 6.01645 5.95936 2.81213 7.91648 1.50266C7.44194 1.407 6.96032 1.40067 6.48249 1.49558C3.67981 2.05034 2.07221 5.8565 2.89196 9.99649C3.71145 14.1367 6.64801 17.0432 9.45068 16.4884C9.92851 16.3937 10.3714 16.2044 10.7738 15.9352C8.46542 15.4702 6.32887 12.885 5.64908 9.45058Z" fill="#CCC033"/>
<path d="M7.62667 9.58976C6.56776 9.58976 5.71486 9.02235 5.6731 8.994C5.49543 8.87353 5.44887 8.63209 5.56908 8.45417C5.6893 8.2765 5.93049 8.22968 6.10816 8.34939C6.12182 8.3585 7.06153 8.97451 8.0387 8.77053C8.59144 8.65512 9.06648 8.29245 9.45092 7.69263C9.56658 7.51168 9.80676 7.45878 9.98797 7.57495C10.1687 7.69086 10.2213 7.93129 10.1054 8.112C9.60227 8.89707 8.95816 9.37515 8.19004 9.53333C7.99846 9.57281 7.80966 9.58976 7.62667 9.58976Z" fill="#FFEEA4"/>
<path d="M8.26477 13.0753C6.66881 13.0753 5.32568 11.9549 5.26191 11.901C5.09816 11.7623 5.07791 11.517 5.2166 11.3533C5.3553 11.1895 5.60003 11.169 5.76403 11.3075C5.77896 11.3199 7.26913 12.5575 8.76234 12.2477C9.61246 12.0715 10.3257 11.416 10.8824 10.2992C10.9781 10.1071 11.2117 10.0289 11.4035 10.1246C11.5956 10.2205 11.6738 10.4538 11.5782 10.6459C10.9088 11.9888 10.0128 12.7842 8.9152 13.01C8.69578 13.0553 8.47787 13.0753 8.26477 13.0753Z" fill="#FFEEA4"/>
<path d="M8.05627 6.64892C7.99755 6.39305 7.72624 6.2336 7.44456 6.28954C7.16363 6.34521 6.97382 6.5945 7.01583 6.85316L9.60009 22.7642C9.60692 22.8059 9.61958 22.8452 9.63679 22.8821C9.7856 23.364 10.2963 23.6621 10.825 23.5576C10.8288 23.5568 10.8324 23.5556 10.8359 23.5548C10.8402 23.5541 10.8445 23.5536 10.8488 23.5528C11.3709 23.4495 11.723 22.9796 11.6716 22.4789C11.6736 22.4392 11.6706 22.3987 11.6612 22.3582L8.05627 6.64892Z" fill="#FFF9DC"/>
<path d="M10.2614 22.7584C10.2442 22.7214 10.2313 22.6822 10.2247 22.6404L7.64045 6.7294C7.6159 6.57856 7.67056 6.43126 7.77585 6.32345C7.67689 6.28067 7.56174 6.26625 7.44456 6.28953C7.16363 6.34496 6.97382 6.5945 7.01583 6.8529L9.60009 22.7639C9.60693 22.8057 9.61958 22.8452 9.63679 22.8819C9.7856 23.3637 10.2963 23.6621 10.825 23.5574C10.8288 23.5566 10.8324 23.5556 10.8359 23.5548C10.8402 23.5538 10.8445 23.5536 10.8488 23.5528C10.9528 23.532 11.0498 23.4966 11.1383 23.4495C10.7316 23.4116 10.3804 23.1441 10.2614 22.7584Z" fill="#FFF4C1"/>
<path d="M18.7401 21.3231C18.1218 20.9809 17.8325 20.2553 18.054 19.6029L21.3347 9.93878C21.9763 8.04873 24.2052 7.22494 25.9958 8.21627C27.7864 9.20761 28.2715 11.5337 27.0104 13.0808L20.562 20.9913C20.1267 21.5256 19.3584 21.6655 18.7401 21.3231V21.3231Z" fill="#FF624B"/>
<path d="M28.5855 5.76793H28.585C28.685 5.67049 28.7728 5.55736 28.8439 5.42904C29.2435 4.70724 28.9669 3.7893 28.2259 3.37905C27.4851 2.96905 26.5603 3.22188 26.1607 3.94368C26.0898 4.072 26.0405 4.20639 26.0109 4.3428H26.0106L26.0098 4.3471C26.0017 4.38557 25.9952 4.42429 25.9901 4.46327L25.5323 7.14497C25.4946 7.36566 25.6041 7.58863 25.8046 7.69948C26.002 7.80881 26.2452 7.78578 26.4122 7.64152L28.4516 5.88308C28.4969 5.84866 28.54 5.8112 28.5812 5.77147L28.5855 5.76793Z" fill="#EACF32"/>
<path d="M21.3716 17.6483C21.32 17.6483 21.2673 17.6379 21.217 17.6159L19.5671 16.8989C19.3702 16.8134 19.2799 16.5846 19.3654 16.3874C19.451 16.1908 19.68 16.1002 19.8769 16.186L21.5268 16.9029C21.7237 16.9882 21.814 17.2173 21.7285 17.4142C21.6647 17.5607 21.5219 17.6483 21.3716 17.6483V17.6483Z" fill="#FF4B34"/>
<path d="M23.8298 16.3849C23.7784 16.3849 23.7258 16.3745 23.6752 16.3525L21.5298 15.4209C21.3329 15.3353 21.2425 15.1063 21.3281 14.9094C21.4136 14.7125 21.6421 14.6219 21.8393 14.7077L23.985 15.6393C24.1819 15.7248 24.2722 15.9539 24.1867 16.1508C24.1231 16.2973 23.9801 16.3849 23.8298 16.3849Z" fill="#FF4B34"/>
<path d="M22.9825 13.5928C22.9311 13.5928 22.8782 13.5825 22.8281 13.5604L21.1782 12.8435C20.9811 12.7579 20.891 12.5289 20.9765 12.332C21.0618 12.1353 21.2914 12.0447 21.4878 12.1305L23.1376 12.8472C23.3345 12.9328 23.4249 13.1621 23.3393 13.3587C23.2758 13.5053 23.1328 13.5928 22.9825 13.5928V13.5928Z" fill="#FF4B34"/>
<path d="M26.2261 12.723C26.1745 12.723 26.1219 12.7126 26.0715 12.6908L23.1122 11.4057C22.9153 11.3201 22.8249 11.0911 22.9105 10.8942C22.996 10.6973 23.2245 10.6069 23.4217 10.6925L26.3813 11.9776C26.5782 12.0632 26.6685 12.2922 26.583 12.4891C26.5192 12.6357 26.3762 12.723 26.2261 12.723V12.723Z" fill="#FF4B34"/>
<path d="M26.2364 7.74123C26.2374 7.73187 26.2384 7.72225 26.2399 7.71263L26.6975 5.03093C26.7025 4.99196 26.7091 4.95323 26.7175 4.91476L26.7182 4.91046H26.7185C26.7481 4.77405 26.7972 4.63966 26.8681 4.51134C27.2371 3.84472 28.0535 3.57872 28.7599 3.86446C28.627 3.67009 28.4473 3.50178 28.2259 3.37929C27.4848 2.96904 26.5603 3.22187 26.1604 3.94393C26.0896 4.07199 26.0405 4.20638 26.0109 4.34304L26.0106 4.34279L26.0098 4.34735C26.0015 4.38581 25.9949 4.42454 25.9898 4.46326L25.5323 7.14521C25.4946 7.3659 25.6041 7.58862 25.8043 7.69972C25.9402 7.77464 26.0972 7.78704 26.2364 7.74123Z" fill="#CCC033"/>
<path d="M26.0231 7.26594L25.5633 5.09826C25.5564 5.05219 25.5466 5.00613 25.5342 4.96058L25.5332 4.95653H25.5329C25.5023 4.84542 25.4557 4.73634 25.3917 4.63258C25.031 4.04795 24.2644 3.85206 23.6793 4.19499C23.0942 4.53818 22.9124 5.29035 23.2731 5.87498C23.3371 5.97874 23.4141 6.06985 23.5004 6.14831L23.5001 6.14856L23.5031 6.15084C23.5274 6.17286 23.5525 6.19386 23.5786 6.21386L25.3216 7.66936C25.4651 7.78907 25.6678 7.80729 25.826 7.71441C25.9821 7.62304 26.0608 7.4436 26.0231 7.26594V7.26594Z" fill="#FCE575"/>
<path d="M24.4525 5.81196C24.4269 5.79221 24.4016 5.77121 24.3771 5.74919L24.3743 5.74666L24.3745 5.74641C24.2882 5.6682 24.2113 5.57684 24.1473 5.47307C23.8544 4.99854 23.9192 4.41366 24.2667 4.02669C24.065 4.03276 23.863 4.08718 23.6793 4.19499C23.0942 4.53792 22.9124 5.29035 23.2731 5.87497C23.3371 5.97874 23.4141 6.06985 23.5004 6.14831L23.5001 6.14856L23.5031 6.15084C23.5274 6.17286 23.5525 6.19386 23.5786 6.21386L25.3216 7.66935C25.4651 7.78906 25.6678 7.80728 25.826 7.7144C25.9821 7.62304 26.0608 7.4436 26.0231 7.26593L25.9864 7.09282L24.4525 5.81196Z" fill="#EACF32"/>
<path d="M29.9995 7.69392C29.9795 7.0159 29.4065 6.47025 28.7197 6.47481C28.5977 6.47556 28.4805 6.49429 28.3702 6.52719V6.52694L28.3661 6.52846C28.3208 6.54213 28.2765 6.55832 28.2337 6.5768L26.1526 7.33758C25.9823 7.39984 25.8719 7.56206 25.8773 7.74277C25.8826 7.92625 26.0056 8.08848 26.1832 8.14644L28.3421 8.85078C28.3724 8.86217 28.4036 8.87229 28.4352 8.8814L28.439 8.88241V8.88216C28.5514 8.9138 28.6693 8.9305 28.7913 8.92974C29.4784 8.92519 30.0193 8.37169 29.9995 7.69392V7.69392Z" fill="#FCE575"/>
<path d="M29.6654 8.52783C29.5435 8.52884 29.4253 8.51189 29.3132 8.4805V8.48076L29.3094 8.47949C29.2777 8.47063 29.2466 8.46026 29.2162 8.44912L27.0574 7.74453C26.8797 7.68657 26.7567 7.52434 26.7514 7.34111C26.7486 7.24974 26.7755 7.16344 26.8246 7.09207L26.1526 7.33782C25.9823 7.40008 25.8719 7.56205 25.8773 7.74301C25.8826 7.92624 26.0056 8.08847 26.1832 8.14643L28.3421 8.85102C28.3724 8.86216 28.4036 8.87253 28.4352 8.88139L28.439 8.88266V8.8824C28.5514 8.91404 28.6693 8.93074 28.7913 8.92998C29.1535 8.92745 29.4749 8.77231 29.6951 8.52707C29.6852 8.52732 29.6756 8.52783 29.6654 8.52783Z" fill="#EACF32"/>
<path d="M19.7676 20.0412L23.0484 10.3771C23.4963 9.05728 24.7185 8.25753 26.0246 8.23272C26.015 8.22716 26.0054 8.22159 25.9958 8.21627C24.2052 7.22494 21.9763 8.04873 21.3347 9.93878L18.0539 19.6029C17.8322 20.2553 18.1218 20.9809 18.7398 21.3231C19.147 21.5483 19.619 21.5645 20.0184 21.397C19.7142 21.0217 19.6076 20.5125 19.7676 20.0412V20.0412Z" fill="#FF4B34"/>
<path d="M15.3707 11.7076C15.1768 11.7076 15.0164 11.5507 15.0047 11.3492L14.842 8.58958C14.8291 8.3699 14.9969 8.18439 15.2082 8.18439H15.5332C15.7448 8.18439 15.9123 8.3699 15.8994 8.58958L15.7369 11.3492C15.7253 11.5507 15.5648 11.7076 15.3707 11.7076Z" fill="#BF6C0D"/>
<path d="M15.7742 10.4219C17.9897 11.6491 18.5943 9.09499 18.7302 8.2593C18.753 8.11808 18.6586 7.98547 18.5219 7.96623C17.6961 7.85158 15.0734 7.67442 15.5889 10.1671C15.6114 10.2761 15.6792 10.3695 15.7742 10.4219V10.4219Z" fill="#EACF32"/>
<path d="M15.3472 11.3492L15.1847 8.58958C15.172 8.37294 15.3348 8.18996 15.542 8.18489C15.539 8.18464 15.5362 8.18439 15.5332 8.18439H15.2082C14.9969 8.18439 14.8291 8.3699 14.842 8.58958L15.0047 11.3492C15.0166 11.5507 15.1768 11.7076 15.3707 11.7076C15.4325 11.7076 15.4909 11.6917 15.542 11.6636C15.4325 11.6031 15.355 11.4864 15.3472 11.3492Z" fill="#8C4C17"/>
<path d="M18.6415 10.5399C17.4879 10.2918 16.3207 10.6535 15.362 11.4398C14.4031 10.6535 13.2358 10.2918 12.0823 10.5399C9.75437 11.0407 8.36417 13.8343 8.97715 16.7797C9.59012 19.7251 11.9739 21.707 14.3018 21.2064C14.6817 21.1247 15.0365 20.9817 15.3618 20.7871C15.687 20.9817 16.0418 21.1247 16.4217 21.2064C18.7496 21.707 21.1336 19.7251 21.7464 16.7797C22.3596 13.8343 20.9694 11.0407 18.6415 10.5399V10.5399Z" fill="#FF624B"/>
<path d="M16.2557 10.5006C15.8154 8.36965 17.6677 8.18996 18.7307 8.25424C18.7506 8.11504 18.657 7.98496 18.5219 7.96623C17.696 7.85133 15.0736 7.67417 15.5888 10.1671C15.6114 10.2759 15.6797 10.3695 15.7744 10.4219C15.9738 10.5325 16.1603 10.612 16.3344 10.6651C16.2962 10.6183 16.2686 10.5621 16.2557 10.5006V10.5006Z" fill="#CCC033"/>
<path d="M10.9786 16.7797C10.3894 13.9484 11.6513 11.2576 13.8177 10.6087C13.2548 10.4452 12.6669 10.4143 12.0823 10.5399C9.75437 11.0407 8.36417 13.8343 8.97715 16.7797C9.59012 19.7251 11.9739 21.707 14.3018 21.2064C14.3919 21.1872 14.4805 21.1639 14.5676 21.1378C12.8899 20.6507 11.4376 18.9853 10.9786 16.7797V16.7797Z" fill="#FF4B34"/>
<path d="M2.39771 27.8418V13.029C2.39771 12.6822 2.67863 12.4013 3.02536 12.4013H5.99229C6.33902 12.4013 6.61994 12.6822 6.61994 13.029V27.8418C6.61994 28.1883 6.33902 28.4692 5.99229 28.4692H3.02536C2.67863 28.4692 2.39771 28.1883 2.39771 27.8418V27.8418Z" fill="#DB9C2E"/>
<path d="M23.4436 27.8418V13.029C23.4436 12.6822 23.7245 12.4013 24.0713 12.4013H27.0382C27.3849 12.4013 27.6658 12.6822 27.6658 13.029V27.8418C27.6658 28.1883 27.3849 28.4692 27.0382 28.4692H24.0713C23.7248 28.4692 23.4436 28.1883 23.4436 27.8418V27.8418Z" fill="#DB9C2E"/>
<path d="M28.9616 18.0312H1.10188C0.744016 18.0312 0.453979 17.7412 0.453979 17.3833V14.4678C0.453979 14.1099 0.744016 13.8199 1.10188 13.8199H28.9616C29.3195 13.8199 29.6095 14.1099 29.6095 14.4678V17.3833C29.6095 17.7412 29.3195 18.0312 28.9616 18.0312Z" fill="#FFC34C"/>
<path d="M28.9616 23.2792H1.10188C0.744016 23.2792 0.453979 22.9892 0.453979 22.6313V19.7158C0.453979 19.3579 0.744016 19.0679 1.10188 19.0679H28.9616C29.3195 19.0679 29.6095 19.3579 29.6095 19.7158V22.6313C29.6095 22.9892 29.3195 23.2792 28.9616 23.2792Z" fill="#FFC34C"/>
<path d="M28.9616 28.5272H1.10188C0.744016 28.5272 0.453979 28.2372 0.453979 27.8793V24.9637C0.453979 24.6059 0.744016 24.3158 1.10188 24.3158H28.9616C29.3195 24.3158 29.6095 24.6059 29.6095 24.9637V27.8793C29.6095 28.2372 29.3195 28.5272 28.9616 28.5272Z" fill="#FFC34C"/>
<path d="M28.4434 27.7495C28.2288 27.7495 28.0547 27.5756 28.0547 27.3607V25.4818C28.0547 25.2672 28.2288 25.0931 28.4434 25.0931C28.658 25.0931 28.8322 25.2672 28.8322 25.4818V27.3607C28.8322 27.5756 28.658 27.7495 28.4434 27.7495Z" fill="#FFD551"/>
<path d="M26.1757 26.2595C26.1757 26.6174 25.8856 26.9074 25.5278 26.9074C25.1699 26.9074 24.8799 26.6174 24.8799 26.2595C24.8799 25.9017 25.1699 25.6116 25.5278 25.6116C25.8856 25.6116 26.1757 25.9017 26.1757 26.2595Z" fill="#FFDF74"/>
<path d="M26.1757 21.0115C26.1757 21.3694 25.8856 21.6594 25.5278 21.6594C25.1699 21.6594 24.8799 21.3694 24.8799 21.0115C24.8799 20.6537 25.1699 20.3636 25.5278 20.3636C25.8856 20.3636 26.1757 20.6537 26.1757 21.0115Z" fill="#FFDF74"/>
<path d="M26.1757 15.7636C26.1757 16.1214 25.8856 16.4115 25.5278 16.4115C25.1699 16.4115 24.8799 16.1214 24.8799 15.7636C24.8799 15.4057 25.1699 15.1157 25.5278 15.1157C25.8856 15.1157 26.1757 15.4057 26.1757 15.7636Z" fill="#FFDF74"/>
<path d="M4.34138 22.6313V19.7158C4.34138 19.3579 4.63142 19.0679 4.98928 19.0679H1.10188C0.744016 19.0679 0.453979 19.3579 0.453979 19.7158V22.6313C0.453979 22.9892 0.744016 23.2792 1.10188 23.2792H4.98928C4.63142 23.2792 4.34138 22.9892 4.34138 22.6313Z" fill="#F9BB32"/>
<path d="M4.34138 27.8793V24.9637C4.34138 24.6059 4.63142 24.3158 4.98928 24.3158H1.10188C0.744016 24.3158 0.453979 24.6059 0.453979 24.9637V27.8793C0.453979 28.2372 0.744016 28.5272 1.10188 28.5272H4.98928C4.63142 28.5272 4.34138 28.2372 4.34138 27.8793Z" fill="#F9BB32"/>
<path d="M4.34138 17.3833V14.4678C4.34138 14.1099 4.63142 13.8199 4.98928 13.8199H1.10188C0.744016 13.8199 0.453979 14.1099 0.453979 14.4678V17.3833C0.453979 17.7412 0.744016 18.0312 1.10188 18.0312H4.98928C4.63142 18.0312 4.34138 17.7412 4.34138 17.3833V17.3833Z" fill="#F9BB32"/>
<path d="M5.18374 15.7636C5.18374 16.1214 4.8937 16.4115 4.53584 16.4115C4.17798 16.4115 3.88794 16.1214 3.88794 15.7636C3.88794 15.4057 4.17798 15.1157 4.53584 15.1157C4.8937 15.1157 5.18374 15.4057 5.18374 15.7636Z" fill="#FFDF74"/>
<path d="M5.18374 21.0115C5.18374 21.3694 4.8937 21.6594 4.53584 21.6594C4.17798 21.6594 3.88794 21.3694 3.88794 21.0115C3.88794 20.6537 4.17798 20.3636 4.53584 20.3636C4.8937 20.3636 5.18374 20.6537 5.18374 21.0115Z" fill="#FFDF74"/>
<path d="M5.18374 26.2595C5.18374 26.6174 4.8937 26.9074 4.53584 26.9074C4.17798 26.9074 3.88794 26.6174 3.88794 26.2595C3.88794 25.9017 4.17798 25.6116 4.53584 25.6116C4.8937 25.6116 5.18374 25.9017 5.18374 26.2595Z" fill="#FFDF74"/>
<path d="M4.34147 21.6296V20.3933C4.07876 20.4758 3.88794 20.7215 3.88794 21.0116C3.88794 21.3016 4.07851 21.5471 4.34147 21.6296Z" fill="#FFD551"/>
<path d="M4.34147 26.8776V25.6413C4.07876 25.7238 3.88794 25.9695 3.88794 26.2596C3.88794 26.5496 4.07851 26.7951 4.34147 26.8776Z" fill="#FFD551"/>
<path d="M4.34147 16.3816V15.1453C4.07876 15.2278 3.88794 15.4735 3.88794 15.7636C3.88794 16.0536 4.07851 16.2991 4.34147 16.3816Z" fill="#FFD551"/>
<path d="M9.65192 15.7636C9.65192 16.3897 9.14423 16.8974 8.5181 16.8974C7.89197 16.8974 7.38428 16.3897 7.38428 15.7636C7.38428 15.1374 7.89197 14.6297 8.5181 14.6297C9.14423 14.6297 9.65192 15.1374 9.65192 15.7636Z" fill="#F9BB32"/>
<path d="M13.5393 21.0116C13.5393 21.6377 13.0316 22.1454 12.4054 22.1454C11.7793 22.1454 11.2716 21.6377 11.2716 21.0116C11.2716 20.3854 11.7793 19.8777 12.4054 19.8777C13.0316 19.8777 13.5393 20.3854 13.5393 21.0116Z" fill="#F9BB32"/>
<path d="M28.4434 22.5015C28.2288 22.5015 28.0547 22.3276 28.0547 22.1127V20.2338C28.0547 20.0192 28.2288 19.8451 28.4434 19.8451C28.658 19.8451 28.8322 20.0192 28.8322 20.2338V22.1127C28.8322 22.3276 28.658 22.5015 28.4434 22.5015Z" fill="#FFD551"/>
<path d="M28.4434 17.0591C28.2288 17.0591 28.0547 16.8852 28.0547 16.6704V14.7915C28.0547 14.5768 28.2288 14.4027 28.4434 14.4027C28.658 14.4027 28.8322 14.5768 28.8322 14.7915V16.6704C28.8322 16.8852 28.658 17.0591 28.4434 17.0591Z" fill="#FFD551"/>
</g>
<defs>
<clipPath id="clip0">
<rect width="30" height="30" fill="white"/>
</clipPath>
</defs>
</svg>
