<svg width="28" height="30" viewBox="0 0 28 30" fill="none" xmlns="http://www.w3.org/2000/svg">
<path d="M16.2867 13.6765C16.0579 13.4477 15.6869 13.4477 15.4581 13.6765C15.0227 14.1118 14.4438 14.3517 13.8281 14.3517C13.2124 14.3517 12.6335 14.1119 12.1981 13.6765C11.9693 13.4477 11.5983 13.4477 11.3695 13.6765C11.1407 13.9053 11.1406 14.2763 11.3695 14.5051C11.8859 15.0216 12.5362 15.3556 13.2422 15.4747V17.9138C13.2422 18.2374 13.5045 18.4998 13.8281 18.4998C14.1517 18.4998 14.414 18.2374 14.414 17.9138V15.4747C15.12 15.3556 15.7702 15.0216 16.2867 14.5051C16.5156 14.2763 16.5155 13.9053 16.2867 13.6765Z" fill="black"/>
<path d="M13.8281 21.1594C13.5791 21.1594 13.3544 20.9961 13.2737 20.7616C13.1958 20.5351 13.2695 20.2754 13.4538 20.1228C13.6352 19.9726 13.8964 19.946 14.1042 20.0566C14.3227 20.1729 14.4469 20.4248 14.4059 20.6689C14.359 20.9477 14.1117 21.1594 13.8281 21.1594V21.1594Z" fill="black"/>
<path d="M22.9247 6.48938C22.7747 6.48938 22.6247 6.43219 22.5104 6.31775C22.2815 6.08895 22.2815 5.71793 22.5104 5.48906L23.6061 4.3933C23.8349 4.16449 24.2059 4.16449 24.4347 4.3933C24.6636 4.62211 24.6636 4.99313 24.4347 5.22199L23.339 6.31775C23.2246 6.43219 23.0746 6.48938 22.9247 6.48938V6.48938Z" fill="black"/>
<path d="M27.0704 15.5859H25.5208C25.1971 15.5859 24.9348 15.3236 24.9348 15C24.9348 14.6764 25.1971 14.4141 25.5208 14.4141H27.0704C27.394 14.4141 27.6563 14.6764 27.6563 15C27.6563 15.3236 27.394 15.5859 27.0704 15.5859Z" fill="black"/>
<path d="M2.13557 15.5859H0.585938C0.262324 15.5859 0 15.3236 0 15C0 14.6764 0.262324 14.4141 0.585938 14.4141H2.13557C2.45918 14.4141 2.7215 14.6764 2.7215 15C2.7215 15.3236 2.45918 15.5859 2.13557 15.5859Z" fill="black"/>
<path d="M4.73161 6.48938C4.58167 6.48938 4.43167 6.43219 4.31729 6.31776L3.22153 5.22205C2.99272 4.99325 2.99272 4.62223 3.22153 4.39336C3.45034 4.16455 3.82136 4.16455 4.05022 4.39336L5.14599 5.48912C5.37479 5.71793 5.37479 6.08895 5.14599 6.31782C5.03155 6.43219 4.88155 6.48938 4.73161 6.48938V6.48938Z" fill="black"/>
<path d="M13.8281 2.7215C13.5045 2.7215 13.2422 2.45918 13.2422 2.13557V0.585938C13.2422 0.262324 13.5045 0 13.8281 0C14.1517 0 14.4141 0.262324 14.4141 0.585938V2.13557C14.4141 2.45918 14.1517 2.7215 13.8281 2.7215Z" fill="black"/>
<path d="M20.4343 6.28881C18.6485 4.51547 16.2797 3.54738 13.7607 3.56642C11.3415 3.58347 9.03232 4.56234 7.2584 6.32279C5.48436 8.08336 4.48814 10.3851 4.45328 12.8038C4.42316 14.8946 5.06658 16.8817 6.3141 18.5505C7.43049 20.0439 8.98943 21.1845 10.7393 21.7967L10.7239 23.7354H10.0506C9.72701 23.7354 9.46469 23.9978 9.46469 24.3214V26.8678C9.46469 27.1914 9.72701 27.4537 10.0506 27.4537H10.2776V29.4141C10.2776 29.7377 10.5399 30 10.8636 30H16.7927C17.1163 30 17.3786 29.7377 17.3786 29.4141V27.4537H17.6056C17.9292 27.4537 18.1915 27.1914 18.1915 26.8678V24.3214C18.1915 23.9978 17.9292 23.7354 17.6056 23.7354H16.9323L16.9169 21.7967C18.6457 21.1917 20.1909 20.0692 21.3036 18.6018C22.5468 16.9621 23.2039 15.005 23.2039 12.942C23.204 10.4251 22.2203 8.06232 20.4343 6.28881V6.28881ZM16.2067 28.8281H11.4495V27.4537H16.2067V28.8281ZM17.0196 26.2818H10.6366V24.9073H17.0196V26.2818ZM16.1613 20.8096C15.9108 20.8837 15.7396 21.1148 15.7417 21.3761L15.7604 23.7354H11.8957L11.9144 21.3761C11.9165 21.1148 11.7454 20.8837 11.4948 20.8096C7.98596 19.7707 5.57219 16.4855 5.62498 12.8207C5.68768 8.47019 9.41711 4.76888 13.7689 4.73824C15.9742 4.72353 18.0459 5.56869 19.6086 7.12037C21.1714 8.67222 22.0321 10.7397 22.0321 12.942C22.0321 16.5509 19.6179 19.7862 16.1613 20.8096Z" fill="black"/>
</svg>
