<svg width="30" height="30" viewBox="0 0 30 30" fill="none" xmlns="http://www.w3.org/2000/svg">
<path d="M20.0863 26.4407H0.762695V0.00152588H20.0863C20.9278 0.00152588 21.6102 0.683899 21.6102 1.52542V24.9168C21.6102 25.7583 20.9278 26.4407 20.0863 26.4407Z" fill="#556080"/>
<path d="M18.5593 0.00152588H16.017V26.4407H18.5593V0.00152588Z" fill="#D75A4A"/>
<path d="M16.0169 8.64914H0.762695V17.8017H16.0169V8.64914Z" fill="#424A60"/>
<path d="M21.6102 8.64914H18.5593V17.8017H21.6102V8.64914Z" fill="#424A60"/>
<path d="M5.84748 28.983L4.32205 27.9661L2.79663 28.983V26.4407H5.84748V28.983Z" fill="#EBBA16"/>
<path d="M27.2035 3.55933H25.1696V5.59322H27.2035V3.55933Z" fill="#E0E1E2"/>
<path d="M27.2035 0H26.1789C26.0396 0 25.9068 0.0284746 25.7858 0.079322C25.7253 0.104746 25.6679 0.135763 25.6145 0.172373C25.346 0.353898 25.1696 0.661017 25.1696 1.00932V3.55932H27.2035V0Z" fill="#D75A4A"/>
<path d="M28.228 0C28.3673 0 28.5001 0.0284746 28.6211 0.079322C28.5001 0.0284746 28.3673 0 28.228 0Z" fill="#D75A4A"/>
<path d="M29.2373 5.59323H27.2034V24.9153H29.2373V5.59323Z" fill="#DB7B1B"/>
<path d="M29.2373 3.55933H27.2034V5.59322H29.2373V3.55933Z" fill="#C4C4C4"/>
<path d="M29.2373 1.00931C29.2373 0.661007 29.0608 0.353889 28.7924 0.172363C29.0608 0.353889 29.2373 0.661007 29.2373 1.00931Z" fill="#D75A4A"/>
<path d="M29.2373 3.55932V1.00932C29.2373 0.661017 29.0608 0.353898 28.7924 0.172373C28.739 0.136271 28.681 0.104746 28.621 0.079322C28.5 0.0284746 28.3673 0 28.2279 0H27.2034V3.55932H29.2373Z" fill="#B74C44"/>
<path d="M29.2374 24.9153H25.1696L27.2035 28.4746L29.2374 24.9153Z" fill="#EBD6BD"/>
<path d="M26.6949 29.4915C26.6949 29.7727 26.9222 30 27.2034 30C27.4846 30 27.7119 29.7727 27.7119 29.4915V27.4576H26.6949V29.4915Z" fill="#4C4C4C"/>
<path d="M27.2035 5.59323H25.1696V24.9153H27.2035V5.59323Z" fill="#ED8A19"/>
</svg>
