<svg width="30" height="30" viewBox="0 0 30 30" fill="none" xmlns="http://www.w3.org/2000/svg">
<g clip-path="url(#clip0)">
<path d="M28.1287 1.21118C29.1622 1.21118 30 2.04901 30 3.08247V26.9176C30 27.951 29.1622 28.7888 28.1287 28.7888H1.87129C0.837827 28.7888 0 27.951 0 26.9176V3.08247C0 2.04901 0.837827 1.21118 1.87129 1.21118H28.1287Z" fill="#B3E6FD"/>
<path d="M9.4404 28.4503C8.97767 27.3613 8.56255 26.2546 8.19724 25.1292C6.88412 21.0837 6.07527 16.8976 5.69082 12.6642C5.34501 8.85635 5.34911 5.02305 5.62962 1.21118H1.87129C0.837827 1.21118 0 2.04901 0 3.08247V26.9176C0 27.951 0.837827 28.7888 1.87129 28.7888H9.58769C9.53789 28.6763 9.48851 28.5636 9.4404 28.4503Z" fill="#7DD5FB"/>
<path d="M24.3554 25.854H5.6446C4.61114 25.854 3.77332 25.0162 3.77332 23.9827V13.7596C3.77332 12.7262 4.61114 11.8883 5.6446 11.8883H24.3554C25.3889 11.8883 26.2267 12.7262 26.2267 13.7596V23.9827C26.2267 25.0163 25.3889 25.854 24.3554 25.854Z" fill="white"/>
<path d="M8.19726 25.1292C7.28585 22.3213 6.6037 19.3479 6.15146 16.4358C4.86496 15.4601 3.77332 16.4356 3.77332 16.4356V23.9828C3.77332 25.0163 4.61114 25.8541 5.6446 25.8541H8.44082C8.35752 25.6132 8.27597 25.3717 8.19726 25.1292Z" fill="#E9F9FF"/>
<path d="M12.0819 8.29847C13.0742 8.29847 13.8786 7.49404 13.8786 6.50173C13.8786 5.50941 13.0742 4.70499 12.0819 4.70499C11.0896 4.70499 10.2852 5.50941 10.2852 6.50173C10.2852 7.49404 11.0896 8.29847 12.0819 8.29847Z" fill="white"/>
<path d="M6.01647 8.29847C7.00878 8.29847 7.81321 7.49404 7.81321 6.50173C7.81321 5.50941 7.00878 4.70499 6.01647 4.70499C5.02415 4.70499 4.21973 5.50941 4.21973 6.50173C4.21973 7.49404 5.02415 8.29847 6.01647 8.29847Z" fill="#EF7D92"/>
<path d="M24.1698 8.11213H18.3213C17.4319 8.11213 16.7109 7.3911 16.7109 6.50173C16.7109 5.61229 17.432 4.89133 18.3213 4.89133H24.1698C25.0593 4.89133 25.7802 5.61235 25.7802 6.50173C25.7802 7.3911 25.0592 8.11213 24.1698 8.11213Z" fill="#EF7D92"/>
<path d="M24.3554 11.8883H5.6446C4.61114 11.8883 3.77332 12.7262 3.77332 13.7596V16.4355H26.2267V13.7596C26.2267 12.7262 25.3889 11.8883 24.3554 11.8883V11.8883Z" fill="#6F8197"/>
<path d="M17.0263 17.9044H12.9739C12.1594 17.9044 11.4991 17.2442 11.4991 16.4297C11.4991 15.6153 12.1594 14.955 12.9739 14.955H17.0263C17.8407 14.955 18.501 15.6153 18.501 16.4297C18.501 17.2442 17.8407 17.9044 17.0263 17.9044Z" fill="#4B555F"/>
<path d="M12.2697 7.63418C12.1019 7.48044 11.9448 7.318 11.8021 7.1406C11.5935 6.8811 11.4712 6.61014 11.3453 6.30295C11.1852 5.91229 11.0646 5.50032 10.9843 5.07977C10.5592 5.40838 10.2852 5.92291 10.2852 6.50178C10.2852 7.49408 11.0896 8.29853 12.0819 8.29853C12.353 8.29853 12.6099 8.2381 12.8404 8.1306C12.6502 7.96539 12.4559 7.80464 12.2697 7.63418V7.63418Z" fill="#E9F9FF"/>
<path d="M6.20334 7.63418C6.03547 7.48044 5.87835 7.318 5.73571 7.1406C5.5271 6.8811 5.40481 6.61014 5.27889 6.30295C5.11881 5.91229 4.99821 5.50032 4.91786 5.07977C4.49279 5.40838 4.21875 5.92291 4.21875 6.50178C4.21875 7.49408 5.0232 8.29853 6.01549 8.29853C6.28664 8.29853 6.54396 8.23877 6.77448 8.13126C6.58428 7.96605 6.38955 7.80464 6.20334 7.63418Z" fill="#EB6773"/>
<path d="M24.1567 6.60005C23.2273 6.59951 22.2994 6.56939 21.3704 6.55689C20.5591 6.54597 19.6172 6.66572 18.8796 6.24452C18.3493 5.94168 18.1581 5.44858 18.0619 4.91238C17.2959 5.03649 16.7109 5.70065 16.7109 6.50172C16.7109 7.3911 17.432 8.11212 18.3213 8.11212H24.1698C25.0017 8.11212 25.6862 7.48128 25.7712 6.67188C25.235 6.68444 24.6865 6.60035 24.1567 6.60005V6.60005Z" fill="#EB6773"/>
<path d="M5.69084 12.6642C5.66736 12.4058 5.64569 12.1474 5.62541 11.8888C4.60082 11.8991 3.77332 12.7326 3.77332 13.7596V16.4355H6.15098C5.95879 15.1842 5.80547 13.9264 5.69084 12.6642Z" fill="#56697E"/>
</g>
<defs>
<clipPath id="clip0">
<rect width="30" height="30" fill="white"/>
</clipPath>
</defs>
</svg>
