<svg width="50" height="50" viewBox="0 0 50 50" fill="none" xmlns="http://www.w3.org/2000/svg">
<path d="M12.1012 0H8.67006C4.34568 0 0.827515 3.50469 0.827515 7.8125V42.1875C0.827515 46.4953 4.34568 50 8.67006 50H12.1012C16.4256 50 19.9437 46.4953 19.9437 42.1875V7.8125C19.9437 3.50469 16.4256 0 12.1012 0ZM16.0225 42.1875C16.0225 44.3414 14.2634 46.0938 12.1012 46.0938H8.67006C6.50787 46.0938 4.74879 44.3414 4.74879 42.1875V7.8125C4.74879 5.65859 6.50787 3.90625 8.67006 3.90625H12.1012C14.2634 3.90625 16.0225 5.65859 16.0225 7.8125V42.1875Z" fill="white"/>
<path d="M47.1966 34.375C48.2794 34.375 49.1572 33.5006 49.1572 32.4219V7.8125C49.1572 3.50469 45.639 0 41.3147 0H37.9816C33.6572 0 30.139 3.50469 30.139 7.8125V42.1875C30.139 46.4953 33.6572 50 37.9816 50H41.3147C45.639 50 49.1572 46.4953 49.1572 42.1875C49.1572 41.1088 48.2794 40.2344 47.1966 40.2344C46.1137 40.2344 45.2359 41.1088 45.2359 42.1875C45.2359 44.3414 43.4769 46.0938 41.3147 46.0938H37.9816C35.8194 46.0938 34.0603 44.3414 34.0603 42.1875V7.8125C34.0603 5.65859 35.8194 3.90625 37.9816 3.90625H41.3147C43.4769 3.90625 45.2359 5.65859 45.2359 7.8125V32.4219C45.2359 33.5006 46.1137 34.375 47.1966 34.375Z" fill="white"/>
</svg>
