<svg width="44" height="50" viewBox="0 0 44 50" fill="none" xmlns="http://www.w3.org/2000/svg">
<path d="M39.9392 19.2304L10.4079 1.02679C8.2714 -0.288548 5.68829 -0.343236 3.49795 0.880496C1.30762 2.10403 0 4.33265 0 6.84154V43.083C0 46.8766 3.05665 49.9794 6.81349 49.9999C6.82374 49.9999 6.834 50 6.84405 50C8.01808 49.9999 9.24152 49.6319 10.3842 48.9347C11.3034 48.3738 11.594 47.174 11.0331 46.2549C10.4723 45.3355 9.27228 45.0451 8.35333 45.606C7.81886 45.9319 7.29689 46.1006 6.83448 46.1005C5.417 46.0928 3.89932 44.8785 3.89932 43.0831V6.84164C3.89932 5.76537 4.46026 4.8096 5.39972 4.2847C6.33927 3.7598 7.44718 3.78324 8.36251 4.34681L37.8939 22.5505C38.7815 23.0969 39.2894 24.0082 39.2873 25.0506C39.2851 26.0928 38.7735 27.002 37.881 27.5466L16.5297 40.6197C15.6114 41.182 15.3227 42.3823 15.885 43.3006C16.4472 44.2189 17.6475 44.5076 18.5658 43.9453L39.9146 30.8738C41.9587 29.6268 43.1819 27.453 43.1868 25.0584C43.1917 22.664 41.9772 20.4851 39.9392 19.2304Z" fill="white"/>
</svg>
