<svg xmlns="http://www.w3.org/2000/svg" width="25" height="25"><path d="M 0 12.5 C 0 5.596 5.596 0 12.5 0 C 19.404 0 25 5.596 25 12.5 C 25 19.404 19.404 25 12.5 25 C 5.596 25 0 19.404 0 12.5 Z" fill="rgba(39, 59, 122, 1.00)"></path><path d="M 15.499 1.585 C 15.434 1.515 15.353 1.462 15.263 1.43 L 15.263 1.43 C 14.97 1.327 14.649 1.48 14.545 1.773 L 14.236 2.647 L 14.025 2.436 C 13.856 2.25 13.579 2.187 13.341 2.301 C 13.05 2.44 12.927 2.788 13.065 3.079 L 13.534 4.062 L 12.9 3.838 C 12.867 4.088 12.782 4.328 12.648 4.542 L 11.068 2.961 L 9.416 4.613 L 8.774 3.971 C 8.704 3.894 8.629 3.822 8.549 3.756 C 8.162 3.436 7.675 3.261 7.172 3.262 C 5.977 3.262 5.008 4.231 5.008 5.426 C 5.008 5.976 5.214 6.478 5.552 6.86 L 5.549 6.863 L 7.441 8.755 L 7.292 8.875 L 7.289 8.872 C 7.252 8.91 7.357 8.823 6.271 9.698 C 6.272 9.7 6.273 9.701 6.274 9.702 C 6.302 9.736 6.331 9.769 6.36 9.802 L 6.358 9.804 L 8.25 11.695 C 8.222 11.711 8.195 11.728 8.169 11.748 L 8.168 11.748 C 7.873 11.974 7.816 12.397 8.042 12.692 L 8.795 13.677 L 8.57 13.647 C 8.187 13.596 7.835 13.864 7.784 14.247 C 7.759 14.433 7.81 14.622 7.925 14.77 L 7.926 14.77 C 7.96 14.814 8 14.854 8.045 14.889 L 8.788 15.632 L 5.456 15.632 C 5.456 18.363 7.029 20.725 9.319 21.864 L 9.319 23.394 L 10.811 24.886 C 11.371 24.962 11.935 25 12.5 25 C 19.404 25 25 19.404 25 12.5 C 25 11.99 24.969 11.487 24.909 10.993 L 15.5 1.584 Z" fill="rgba(18, 17, 73, 1.00)"></path><path d="M 14.718 16.965 C 14.091 17.035 13.512 16.449 13.424 15.657 C 13.336 14.864 13.773 14.166 14.399 14.096 C 15.026 14.027 15.605 14.613 15.693 15.405 C 15.781 16.197 15.344 16.895 14.718 16.965 Z" fill="rgb(60,60,64)"></path><g transform="translate(13.945 14.091)"><path d="M 0.454 0.006 L 0.773 2.874 C 1.399 2.805 1.836 2.106 1.748 1.314 C 1.66 0.522 1.081 -0.064 0.454 0.006 Z" fill="rgb(40,42,44)"></path><path d="M 0.567 1.023 C 0.279 1.055 0.026 0.904 0.002 0.686 C -0.022 0.467 0.191 0.264 0.479 0.233 C 0.767 0.201 1.02 0.352 1.044 0.57 C 1.069 0.788 0.855 0.991 0.567 1.023 Z" fill="rgb(40,42,44)"></path></g><path d="M 14.99 14.66 C 14.966 14.442 14.713 14.291 14.425 14.323 L 14.513 15.113 C 14.801 15.081 15.014 14.879 14.99 14.66 Z" fill="rgb(23,23,25)"></path><path d="M 11.827 13.564 L 11.15 14.081 L 11.323 12.787 C 11.375 12.404 11.106 12.052 10.723 12.001 C 10.34 11.95 9.988 12.219 9.937 12.602 L 9.907 12.827 L 9.186 11.884 C 8.943 11.566 8.487 11.505 8.169 11.748 L 8.169 11.748 C 7.873 11.974 7.817 12.397 8.042 12.692 L 8.795 13.677 L 8.57 13.647 C 8.187 13.595 7.835 13.864 7.784 14.247 C 7.733 14.63 8.001 14.982 8.384 15.033 L 9.678 15.206 L 9.002 15.723 C 8.664 15.981 8.6 16.464 8.857 16.802 C 9.069 17.078 9.464 17.131 9.74 16.92 L 10.805 16.106 L 11.424 16.917 L 12.342 16.215 L 11.723 15.405 L 12.787 14.591 C 13.064 14.38 13.117 13.985 12.905 13.708 L 12.905 13.708 C 12.648 13.371 12.165 13.306 11.827 13.564 Z" fill="rgb(62,195,128)"></path><path d="M 11.827 13.564 L 11.15 14.081 L 11.323 12.787 C 11.375 12.404 11.106 12.052 10.723 12.001 C 10.34 11.95 9.988 12.219 9.937 12.602 L 9.907 12.827 L 9.186 11.884 C 8.943 11.566 8.487 11.505 8.169 11.748 L 8.169 11.748 L 8.168 11.748 L 11.862 16.582 L 12.342 16.215 L 11.723 15.405 L 12.787 14.591 C 13.064 14.38 13.117 13.985 12.905 13.708 L 12.905 13.708 C 12.648 13.371 12.165 13.306 11.827 13.564 Z" fill="rgb(0,169,91)"></path><path d="M 15.662 4.815 L 14.992 4.578 L 15.975 4.109 C 16.266 3.97 16.389 3.621 16.25 3.331 C 16.111 3.04 15.763 2.916 15.472 3.055 L 15.301 3.137 L 15.631 2.203 C 15.743 1.888 15.578 1.542 15.262 1.43 L 15.262 1.43 C 14.97 1.327 14.649 1.48 14.545 1.773 L 14.2 2.747 L 14.119 2.576 C 13.98 2.285 13.631 2.162 13.341 2.301 C 13.05 2.44 12.926 2.788 13.065 3.079 L 13.534 4.062 L 12.864 3.825 C 12.53 3.707 12.163 3.882 12.045 4.216 C 11.948 4.489 12.092 4.79 12.365 4.886 L 13.419 5.259 L 13.135 6.062 L 14.044 6.383 L 14.328 5.581 L 15.382 5.954 C 15.655 6.051 15.955 5.908 16.052 5.634 L 16.052 5.634 C 16.171 5.3 15.996 4.933 15.662 4.815 Z" fill="rgb(62,195,128)"></path><path d="M 15.662 4.815 L 14.992 4.578 L 15.975 4.109 C 16.266 3.97 16.389 3.621 16.25 3.331 C 16.111 3.04 15.763 2.916 15.472 3.055 L 15.301 3.137 L 15.631 2.203 C 15.743 1.888 15.578 1.542 15.262 1.43 L 15.262 1.43 L 15.262 1.43 L 13.568 6.215 L 14.044 6.383 L 14.328 5.581 L 15.382 5.954 C 15.655 6.051 15.956 5.908 16.052 5.634 L 16.052 5.634 C 16.171 5.3 15.996 4.933 15.662 4.815 Z" fill="rgb(0,169,91)"></path><path d="M 5.456 15.632 C 5.456 19.474 8.571 22.589 12.413 22.589 C 16.256 22.589 19.371 19.474 19.371 15.632 Z" fill="rgb(255,255,255)"></path><g transform="translate(9.319 15.632)"><path d="M 0 6.217 L 6.189 6.217 L 6.189 7.761 L 0 7.761 Z" fill="rgb(162,224,237)"></path><path d="M 3.095 0 L 3.095 6.957 C 6.937 6.957 10.052 3.842 10.052 0 Z" fill="rgb(162,224,237)"></path></g><path d="M 12.413 21.849 L 15.508 21.849 L 15.508 23.393 L 12.413 23.393 Z" fill="rgb(101,209,230)"></path><path d="M 14.117 10.21 L 14.115 10.214 C 13.739 11.329 14.338 12.538 15.454 12.915 C 16.569 13.291 17.778 12.692 18.154 11.576 L 18.156 11.572 Z" fill="rgb(255,119,81)"></path><path d="M 14.727 10.415 L 14.725 10.419 C 14.462 11.198 14.881 12.042 15.659 12.305 C 16.438 12.568 17.282 12.149 17.545 11.371 L 17.546 11.366 Z" fill="rgb(255,187,171)"></path><path d="M 16.136 10.891 L 15.454 12.915 C 16.569 13.291 17.778 12.692 18.154 11.576 L 18.156 11.572 Z" fill="rgb(255,95,59)"></path><path d="M 16.136 10.891 L 15.659 12.305 C 16.438 12.567 17.282 12.149 17.545 11.371 L 17.546 11.366 Z" fill="rgb(255,147,118)"></path><path d="M 16.037 11.783 C 16.002 11.88 15.895 11.932 15.796 11.899 C 15.698 11.866 15.644 11.76 15.675 11.661 C 15.709 11.561 15.933 11.164 16.033 11.198 C 16.133 11.231 16.071 11.683 16.037 11.783 Z" fill="rgb(255,247,207)"></path><path d="M 16.037 11.783 C 16.071 11.683 16.133 11.231 16.033 11.198 L 15.795 11.903 C 15.895 11.936 16.003 11.883 16.037 11.783 Z" fill="rgb(254,238,154)"></path><path d="M 15.29 11.299 C 15.195 11.346 15.081 11.307 15.034 11.213 C 14.987 11.118 15.026 11.003 15.12 10.957 C 15.215 10.91 15.654 10.788 15.701 10.882 C 15.747 10.977 15.384 11.252 15.29 11.299 Z" fill="rgb(255,247,207)"></path><path d="M 16.562 11.728 C 16.609 11.823 16.724 11.861 16.818 11.815 C 16.913 11.768 16.952 11.653 16.905 11.559 C 16.858 11.464 16.583 11.101 16.488 11.148 C 16.394 11.195 16.516 11.634 16.562 11.728 Z" fill="rgb(254,238,154)"></path><path d="M 6.271 9.698 C 6.272 9.7 6.273 9.701 6.274 9.702 C 7.013 10.618 8.355 10.762 9.271 10.023 C 10.187 9.284 10.331 7.942 9.592 7.026 L 9.589 7.022 Z" fill="rgb(255,119,81)"></path><path d="M 6.772 9.294 C 6.773 9.296 6.774 9.297 6.775 9.298 C 7.291 9.938 8.228 10.038 8.867 9.522 C 9.507 9.006 9.607 8.069 9.091 7.43 L 9.088 7.426 Z" fill="rgb(255,187,171)"></path><path d="M 7.93 8.36 L 9.271 10.023 C 10.187 9.284 10.331 7.942 9.592 7.026 L 9.589 7.022 Z" fill="rgb(255,95,59)"></path><path d="M 7.93 8.36 L 8.867 9.522 C 9.507 9.006 9.607 8.069 9.091 7.43 L 9.088 7.426 Z" fill="rgb(255,147,118)"></path><path d="M 8.629 8.923 C 8.696 9.005 8.683 9.125 8.601 9.192 C 8.519 9.258 8.398 9.245 8.332 9.163 C 8.266 9.081 8.052 8.679 8.134 8.612 C 8.216 8.546 8.563 8.841 8.629 8.923 Z" fill="rgb(255,247,207)"></path><path d="M 8.629 8.923 C 8.563 8.841 8.216 8.546 8.134 8.613 L 8.601 9.192 C 8.64 9.16 8.665 9.114 8.671 9.063 C 8.676 9.013 8.661 8.962 8.629 8.923 Z" fill="rgb(254,238,154)"></path><path d="M 7.82 9.294 C 7.807 9.396 7.714 9.469 7.611 9.458 C 7.507 9.447 7.432 9.356 7.44 9.253 C 7.452 9.148 7.584 8.712 7.689 8.723 C 7.794 8.735 7.832 9.189 7.82 9.294 Z" fill="rgb(255,247,207)"></path><path d="M 8.866 8.45 C 8.97 8.46 9.063 8.385 9.074 8.281 C 9.085 8.176 9.01 8.083 8.906 8.07 C 8.801 8.059 8.347 8.097 8.336 8.202 C 8.325 8.307 8.761 8.439 8.866 8.45 Z" fill="rgb(254,238,154)"></path><path d="M 11.805 10.849 C 11.126 10.598 10.832 9.698 11.15 8.838 C 11.467 7.979 12.276 7.486 12.955 7.737 C 13.635 7.988 13.929 8.888 13.611 9.748 C 13.293 10.607 12.485 11.1 11.805 10.849 Z" fill="rgb(60,60,64)"></path><g transform="translate(11.806 7.737)"><path d="M 1.15 0 L 0 3.112 C 0.68 3.363 1.488 2.87 1.806 2.011 C 2.123 1.151 1.83 0.251 1.15 0 Z" fill="rgb(40,42,44)"></path><path d="M 0.742 1.104 C 0.429 0.988 0.247 0.703 0.335 0.466 C 0.422 0.229 0.746 0.131 1.059 0.246 C 1.371 0.362 1.553 0.647 1.466 0.884 C 1.378 1.121 1.054 1.219 0.742 1.104 Z" fill="rgb(40,42,44)"></path></g><path d="M 13.272 8.621 C 13.36 8.384 13.177 8.098 12.865 7.983 L 12.548 8.84 C 12.861 8.956 13.185 8.857 13.272 8.621 Z" fill="rgb(23,23,25)"></path><path d="M 10.58 5.541 C 9.953 5.611 9.374 5.025 9.286 4.233 C 9.198 3.441 9.635 2.742 10.261 2.673 C 10.888 2.603 11.467 3.189 11.555 3.981 C 11.643 4.773 11.206 5.472 10.58 5.541 Z" fill="rgb(199,224,88)"></path><path d="M 10.261 2.673 L 10.58 5.542 C 11.206 5.472 11.643 4.773 11.555 3.981 C 11.467 3.189 10.888 2.603 10.261 2.673 Z" fill="rgb(171,214,52)"></path><path d="M 10.374 3.69 C 10.086 3.722 9.833 3.571 9.809 3.353 C 9.785 3.134 9.999 2.932 10.287 2.9 C 10.574 2.868 10.827 3.019 10.852 3.237 C 10.876 3.455 10.662 3.658 10.374 3.69 Z" fill="rgb(125,202,63)"></path><path d="M 10.852 3.237 C 10.828 3.019 10.575 2.868 10.287 2.9 L 10.374 3.69 C 10.662 3.658 10.876 3.455 10.852 3.237 Z" fill="rgb(101,176,66)"></path><path d="M 15.281 8.069 C 15.281 7.035 16.118 6.198 17.151 6.198 C 18.185 6.198 19.022 7.035 19.022 8.069 C 19.022 9.102 18.185 9.939 17.151 9.939 C 16.118 9.939 15.281 9.102 15.281 8.069 Z" fill="rgb(62,195,128)"></path><path d="M 17.152 6.198 L 17.152 9.939 C 18.185 9.939 19.022 9.102 19.022 8.069 C 19.022 7.035 18.185 6.198 17.152 6.198 Z" fill="rgb(0,169,91)"></path><path d="M 15.812 8.069 C 15.812 7.329 16.412 6.729 17.151 6.729 C 17.891 6.729 18.491 7.329 18.491 8.069 C 18.491 8.808 17.891 9.408 17.151 9.408 C 16.412 9.408 15.812 8.808 15.812 8.069 Z" fill="rgb(255,247,207)"></path><path d="M 18.491 8.069 C 18.491 7.329 17.891 6.729 17.152 6.729 L 17.152 9.408 C 17.891 9.408 18.491 8.808 18.491 8.069 Z" fill="rgb(254,238,154)"></path><path d="M 17.317 8.912 C 17.317 9.003 17.243 9.077 17.152 9.077 C 17.06 9.077 16.986 9.003 16.986 8.912 C 16.986 8.821 17.06 8.434 17.152 8.434 C 17.243 8.434 17.317 8.821 17.317 8.912 Z" fill="rgb(255,255,255)"></path><path d="M 17.317 8.912 C 17.317 8.821 17.243 8.434 17.152 8.434 L 17.152 9.077 C 17.195 9.077 17.237 9.06 17.268 9.029 C 17.299 8.998 17.317 8.956 17.317 8.912 Z" fill="rgb(255,247,207)"></path><path d="M 16.571 8.722 C 16.507 8.787 16.402 8.787 16.338 8.722 C 16.273 8.658 16.273 8.553 16.338 8.489 C 16.402 8.424 16.728 8.203 16.792 8.267 C 16.857 8.332 16.636 8.658 16.571 8.722 Z" fill="rgb(255,255,255)"></path><path d="M 17.732 8.722 C 17.797 8.787 17.901 8.787 17.966 8.722 C 18.03 8.658 18.03 8.553 17.966 8.489 C 17.901 8.424 17.575 8.203 17.511 8.267 C 17.446 8.332 17.668 8.658 17.732 8.722 Z" fill="rgb(255,247,207)"></path><path d="M 17.317 7.225 C 17.317 7.134 17.243 7.06 17.152 7.06 C 17.06 7.06 16.986 7.134 16.986 7.225 C 16.986 7.317 17.06 7.703 17.152 7.703 C 17.243 7.703 17.317 7.317 17.317 7.225 Z" fill="rgb(255,255,255)"></path><path d="M 17.317 7.225 C 17.317 7.317 17.243 7.703 17.152 7.703 L 17.152 7.06 C 17.195 7.06 17.237 7.078 17.268 7.109 C 17.299 7.14 17.317 7.182 17.317 7.225 Z" fill="rgb(255,247,207)"></path><path d="M 16.571 7.415 C 16.507 7.351 16.402 7.351 16.338 7.415 C 16.273 7.48 16.273 7.584 16.338 7.649 C 16.402 7.713 16.728 7.934 16.792 7.87 C 16.857 7.805 16.636 7.48 16.571 7.415 Z" fill="rgb(255,255,255)"></path><path d="M 17.732 7.415 C 17.797 7.351 17.901 7.351 17.966 7.415 C 18.03 7.48 18.03 7.584 17.966 7.649 C 17.901 7.713 17.575 7.934 17.511 7.87 C 17.446 7.805 17.668 7.48 17.732 7.415 Z" fill="rgb(255,247,207)"></path><path d="M 5.008 5.426 C 5.008 4.231 5.977 3.262 7.173 3.262 C 8.368 3.262 9.337 4.231 9.337 5.426 C 9.337 6.621 8.368 7.59 7.173 7.59 C 5.977 7.59 5.008 6.621 5.008 5.426 Z" fill="rgb(62,195,128)"></path><path d="M 7.172 3.262 L 7.172 7.59 C 8.368 7.59 9.336 6.621 9.336 5.426 C 9.336 4.231 8.368 3.262 7.172 3.262 Z" fill="rgb(0,169,91)"></path><path d="M 5.623 5.426 C 5.623 4.57 6.317 3.877 7.173 3.877 C 8.028 3.877 8.722 4.57 8.722 5.426 C 8.722 6.282 8.028 6.975 7.173 6.975 C 6.317 6.975 5.623 6.282 5.623 5.426 Z" fill="rgb(255,247,207)"></path><path d="M 8.722 5.426 C 8.722 4.57 8.028 3.877 7.172 3.877 L 7.172 6.975 C 8.028 6.975 8.722 6.281 8.722 5.426 Z" fill="rgb(254,238,154)"></path><path d="M 7.363 6.401 C 7.361 6.505 7.276 6.588 7.172 6.588 C 7.069 6.588 6.984 6.505 6.981 6.401 C 6.981 6.296 7.067 5.848 7.172 5.848 C 7.278 5.848 7.363 6.296 7.363 6.401 Z" fill="rgb(255,255,255)"></path><path d="M 7.363 6.401 C 7.363 6.296 7.278 5.848 7.172 5.848 L 7.172 6.592 C 7.278 6.592 7.363 6.507 7.363 6.401 Z" fill="rgb(255,247,207)"></path><path d="M 6.501 6.182 C 6.426 6.256 6.305 6.256 6.231 6.182 C 6.156 6.107 6.156 5.986 6.231 5.912 C 6.305 5.837 6.682 5.581 6.757 5.656 C 6.831 5.73 6.575 6.107 6.501 6.182 Z" fill="rgb(255,255,255)"></path><path d="M 7.844 6.182 C 7.919 6.256 8.04 6.256 8.114 6.182 C 8.189 6.107 8.189 5.986 8.114 5.912 C 8.04 5.837 7.663 5.581 7.588 5.656 C 7.513 5.73 7.769 6.107 7.844 6.182 Z" fill="rgb(255,247,207)"></path><path d="M 7.363 4.45 C 7.361 4.346 7.276 4.264 7.172 4.264 C 7.069 4.264 6.984 4.346 6.981 4.45 C 6.981 4.556 7.067 5.003 7.172 5.003 C 7.278 5.003 7.363 4.556 7.363 4.45 Z" fill="rgb(255,255,255)"></path><path d="M 7.363 4.45 C 7.363 4.556 7.278 5.003 7.172 5.003 L 7.172 4.259 C 7.278 4.259 7.363 4.345 7.363 4.45 Z" fill="rgb(255,247,207)"></path><path d="M 6.501 4.67 C 6.426 4.595 6.305 4.595 6.231 4.67 C 6.156 4.744 6.156 4.865 6.231 4.94 C 6.305 5.015 6.682 5.271 6.757 5.196 C 6.831 5.121 6.575 4.744 6.501 4.67 Z" fill="rgb(255,255,255)"></path><path d="M 7.844 4.67 C 7.919 4.595 8.04 4.595 8.114 4.67 C 8.189 4.744 8.189 4.865 8.114 4.94 C 8.04 5.015 7.663 5.271 7.588 5.196 C 7.513 5.121 7.769 4.744 7.844 4.67 Z" fill="rgb(255,247,207)"></path></svg>