<svg xmlns="http://www.w3.org/2000/svg" width="45" height="45"><g transform="translate(0.779 37.956)"><path d="M 3.068 3.842 C 2.864 3.842 2.668 3.761 2.524 3.616 L 0.216 1.305 C -0.076 1.003 -0.071 0.523 0.225 0.226 C 0.522 -0.071 1.002 -0.076 1.304 0.216 L 3.612 2.527 C 3.832 2.747 3.897 3.078 3.778 3.366 C 3.659 3.654 3.379 3.842 3.068 3.842 Z M 6.145 3.842 C 5.834 3.842 5.553 3.654 5.434 3.366 C 5.315 3.078 5.381 2.747 5.601 2.527 L 6.701 1.426 C 7.003 1.134 7.483 1.138 7.779 1.435 C 8.076 1.732 8.08 2.212 7.789 2.515 L 6.689 3.616 C 6.545 3.761 6.349 3.842 6.145 3.842 Z M 6.145 3.842" fill="rgb(76,128,86)"></path><path d="M 6.145 6.923 L 3.068 6.923 C 2.643 6.923 2.299 6.578 2.299 6.153 L 2.299 3.071 C 2.298 2.867 2.38 2.671 2.524 2.527 C 2.668 2.382 2.864 2.301 3.068 2.301 L 6.145 2.301 C 6.349 2.301 6.545 2.382 6.689 2.527 C 6.833 2.671 6.914 2.867 6.914 3.071 L 6.914 6.153 C 6.914 6.578 6.57 6.923 6.145 6.923 Z M 6.145 6.923" fill="rgb(76,128,86)"></path></g><path d="M 11.986 31.862 C 12.539 28.034 15.909 30.375 15.909 30.375 C 15.619 31.235 15.122 32.01 14.463 32.632 L 12.352 33.611 Z M 11.986 31.862" fill="rgb(36,174,95)"></path><path d="M 22.694 24.083 L 35.772 24.083 L 35.772 28.704 L 22.694 28.704 Z M 22.694 24.083" fill="rgb(84,117,128)"></path><path d="M 25.002 24.083 L 28.079 24.083 L 28.079 28.704 L 25.002 28.704 Z M 25.002 24.083" fill="rgb(155,200,194)"></path><path d="M 40.741 22.542 L 37.156 22.542 C 36.731 22.542 36.387 22.197 36.387 21.772 C 36.387 21.347 36.731 21.002 37.156 21.002 L 40.741 21.002 C 41.552 21.019 42.244 20.421 42.346 19.615 L 43.453 8.832 C 43.502 8.411 43.365 7.99 43.08 7.677 C 42.765 7.33 42.317 7.134 41.849 7.138 L 38.464 7.138 C 38.039 7.138 37.695 6.793 37.695 6.367 C 37.695 5.942 38.039 5.597 38.464 5.597 L 41.849 5.597 C 42.752 5.595 43.614 5.976 44.221 6.647 C 44.795 7.285 45.072 8.137 44.984 8.991 L 43.876 19.774 C 43.695 21.366 42.341 22.562 40.741 22.542 Z M 40.741 22.542" fill="rgb(84,117,128)"></path><path d="M 5.385 41.798 C 4.96 41.798 4.616 41.453 4.616 41.028 L 4.616 37.177 C 4.624 36.757 4.966 36.421 5.385 36.421 C 5.804 36.421 6.147 36.757 6.154 37.177 L 6.154 41.028 C 6.154 41.453 5.81 41.798 5.385 41.798 Z M 5.385 41.798" fill="rgb(76,128,86)"></path><path d="M 21.132 19.754 C 20.221 19.764 19.397 19.214 19.055 18.368 L 14.232 6.367 L 20.001 6.367 Z M 21.132 19.754" fill="rgb(144,186,225)"></path><path d="M 18.34 34.958 L 19.155 30.46 C 19.425 28.997 20.7 27.935 22.186 27.934 L 35.51 27.934 C 36.996 27.935 38.271 28.997 38.541 30.46 L 40.595 41.791 L 40.991 43.971 C 41.032 44.196 40.971 44.427 40.825 44.603 C 40.678 44.778 40.462 44.879 40.233 44.879 L 17.463 44.879 C 17.235 44.879 17.018 44.778 16.872 44.602 C 16.726 44.427 16.665 44.196 16.706 43.971 Z M 18.34 34.958" fill="rgb(192,58,43)"></path><path d="M 40.991 43.971 C 41.032 44.196 40.971 44.427 40.825 44.603 C 40.678 44.778 40.462 44.879 40.233 44.879 L 17.463 44.879 C 17.234 44.879 17.018 44.778 16.872 44.602 C 16.726 44.427 16.665 44.195 16.706 43.97 L 17.101 41.798 L 40.572 41.798 L 40.595 41.791 Z M 40.991 43.971" fill="rgb(128,47,52)"></path><path d="M 32.695 34.866 C 32.695 36.993 30.973 38.717 28.848 38.717 C 26.724 38.717 25.002 36.993 25.002 34.866 C 25.002 32.739 26.724 31.015 28.848 31.015 C 30.973 31.015 32.695 32.739 32.695 34.866 Z M 32.695 34.866" fill="rgb(44,62,80)"></path><path d="M 32.111 38.904 C 31.907 38.904 31.712 38.823 31.567 38.679 L 25.041 32.142 C 24.75 31.84 24.754 31.36 25.05 31.063 C 25.347 30.766 25.827 30.761 26.129 31.053 L 32.655 37.589 C 32.875 37.81 32.941 38.141 32.822 38.429 C 32.703 38.716 32.422 38.904 32.111 38.904 Z M 32.111 38.904" fill="rgb(53,73,94)"></path><path d="M 18.848 6.367 L 20.232 22.704 C 20.317 23.914 21.321 24.852 22.532 24.853 L 35.933 24.853 C 37.144 24.852 38.148 23.914 38.233 22.704 L 38.379 21.002 L 39.357 9.448 L 39.618 6.367" fill="rgb(176,211,240)"></path><path d="M 39.618 2.516 L 39.618 6.367 L 14.232 6.367 L 17.842 3.355 C 18.367 2.895 18.769 2.311 19.012 1.657 C 19.362 0.779 20.212 0.204 21.156 0.206 L 37.31 0.206 C 38.585 0.206 39.618 1.24 39.618 2.516 Z M 39.618 2.516" fill="rgb(192,58,43)"></path><path d="M 34.233 4.056 L 24.233 4.056 C 23.808 4.056 23.463 3.712 23.463 3.286 C 23.463 2.861 23.808 2.516 24.233 2.516 L 34.233 2.516 C 34.658 2.516 35.003 2.861 35.003 3.286 C 35.003 3.712 34.658 4.056 34.233 4.056 Z M 34.233 4.056" fill="rgb(230,76,60)"></path><path d="M 25.002 22.542 L 23.463 22.542 C 23.038 22.542 22.694 22.197 22.694 21.772 C 22.694 21.347 23.038 21.002 23.463 21.002 L 25.002 21.002 C 25.427 21.002 25.771 21.347 25.771 21.772 C 25.771 22.197 25.427 22.542 25.002 22.542 Z M 35.003 22.542 L 28.079 22.542 C 27.654 22.542 27.31 22.197 27.31 21.772 C 27.31 21.347 27.654 21.002 28.079 21.002 L 35.003 21.002 C 35.427 21.002 35.772 21.347 35.772 21.772 C 35.772 22.197 35.427 22.542 35.003 22.542 Z M 35.003 22.542" fill="rgb(144,186,225)"></path><path d="M 8.901 34.666 C 8.643 34.545 8.362 34.482 8.078 34.481 C 7.948 34.482 7.82 34.495 7.693 34.519 L 7.693 34.481 C 7.693 33.205 6.66 32.17 5.385 32.17 C 4.111 32.17 3.077 33.205 3.077 34.481 L 3.077 34.519 C 2.951 34.495 2.822 34.482 2.693 34.481 C 1.631 34.481 0.769 35.343 0.769 36.407 C 0.771 36.591 0.797 36.775 0.846 36.953 C 0.17 37.294 -0.158 38.078 0.074 38.8 C 0.305 39.522 1.027 39.968 1.775 39.851 C 2.523 39.735 3.076 39.09 3.077 38.332 L 3.077 38.294 C 3.486 38.212 3.856 37.998 4.131 37.685 C 4.42 38.091 4.887 38.333 5.385 38.333 C 5.883 38.333 6.35 38.091 6.639 37.685 C 6.915 37.998 7.285 38.212 7.693 38.294 L 7.693 38.332" fill="rgb(36,174,95)"></path><path d="M 19.617 38.717 C 19.62 41.411 17.874 43.793 15.307 44.598 C 12.74 45.403 9.948 44.443 8.416 42.229 C 7.692 41.202 7.305 39.975 7.308 38.717 C 7.308 35.314 10.064 32.555 13.463 32.555 C 16.856 32.567 19.605 35.319 19.617 38.717 Z M 19.617 38.717" fill="rgb(229,126,37)"></path><path d="M 18.078 37.176 C 18.078 40.58 15.323 43.339 11.924 43.339 C 10.668 43.342 9.442 42.954 8.416 42.229 C 7.692 41.202 7.305 39.975 7.308 38.717 C 7.308 35.314 10.064 32.555 13.463 32.555 C 14.718 32.552 15.944 32.939 16.97 33.664 C 17.694 34.692 18.082 35.919 18.078 37.176 Z M 18.078 37.176" fill="rgb(242,156,31)"></path><path d="M 12.693 35.636 C 12.489 35.636 12.294 35.555 12.149 35.411 C 12.005 35.266 11.924 35.07 11.924 34.866 C 11.82 33.056 11.083 31.339 9.842 30.019 C 9.552 29.716 9.558 29.238 9.853 28.942 C 10.149 28.645 10.627 28.64 10.929 28.93 C 12.46 30.539 13.359 32.646 13.463 34.866 C 13.463 35.291 13.118 35.636 12.693 35.636 Z M 12.693 35.636" fill="rgb(128,69,55)"></path></svg>