<svg width="30" height="30" viewBox="0 0 30 30" fill="none" xmlns="http://www.w3.org/2000/svg">
<path d="M25.6066 4.39339C22.7735 1.56029 19.0066 0 15 0C11.3933 0 7.90787 1.29845 5.18555 3.65639C4.99947 3.81752 4.97932 4.09904 5.14046 4.2849C5.30159 4.47098 5.58289 4.49112 5.76897 4.32999C8.32924 2.11235 11.6075 0.891037 15 0.891037C18.7685 0.891037 22.3116 2.35863 24.9765 5.0235C27.6414 7.68837 29.109 11.2315 29.109 15C29.109 18.7685 27.6414 22.3116 24.9765 24.9765C22.3116 27.6414 18.7685 29.109 15 29.109C11.2315 29.109 7.68837 27.6414 5.0235 24.9765C2.35863 22.3116 0.891037 18.7685 0.891037 15C0.891037 11.4947 2.18491 8.13423 4.53461 5.53802C4.69963 5.35561 4.68544 5.07385 4.50302 4.9086C4.3206 4.74358 4.03885 4.75754 3.87383 4.94019C1.37581 7.7005 0 11.2731 0 15C0 19.0066 1.56029 22.7735 4.39339 25.6066C7.22649 28.4397 10.9934 30 15 30C19.0066 30 22.7735 28.4397 25.6066 25.6066C28.4397 22.7735 30 19.0066 30 15C30 10.9934 28.4397 7.22649 25.6066 4.39339V4.39339Z" fill="black"/>
<path d="M14.4335 20.3394C13.0577 20.3394 11.9382 21.4709 11.9382 22.8616C11.9382 24.2523 13.0577 25.3839 14.4335 25.3839C15.1089 25.3839 15.745 25.1152 16.2245 24.627C16.6891 24.1539 16.9558 23.5105 16.9558 22.8616C16.9558 22.1949 16.6914 21.5634 16.2117 21.0835C15.7317 20.6037 15.1002 20.3394 14.4335 20.3394ZM14.4335 24.4929C13.5489 24.4929 12.8293 23.7611 12.8293 22.8616C12.8293 21.9621 13.5489 21.2304 14.4335 21.2304C15.3177 21.2304 16.0645 21.9775 16.0645 22.8616C16.0645 23.7458 15.3177 24.4929 14.4335 24.4929V24.4929Z" fill="black"/>
<path d="M18.7269 13.3811C18.9125 13.5432 19.1938 13.5239 19.3556 13.3385C20.4293 12.1085 20.9738 10.8208 20.9738 9.51141C20.9738 8.13057 20.3536 6.87881 19.2275 5.98686C18.0954 5.09033 16.5592 4.61655 14.7844 4.61655C12.589 4.61655 11.231 5.35767 10.4787 5.97931C9.56888 6.73096 9.02551 7.73895 9.02551 8.67554C9.02551 9.28436 9.27476 9.82063 9.72749 10.1857C10.1001 10.4862 10.5963 10.6586 11.0893 10.6586C11.9387 10.6586 12.3111 10.1095 12.6103 9.6682C12.9893 9.1095 13.347 8.5817 14.7032 8.5817C15.168 8.5817 16.6848 8.68195 16.6848 9.97009C16.6848 10.9424 15.786 11.6325 14.9929 12.2413C14.797 12.3914 14.6121 12.5336 14.4395 12.6801C13.5262 13.4672 12.4777 14.683 12.4777 17.1172C12.4777 18.4692 12.8057 19.3698 14.4068 19.3698C15.1158 19.3698 15.6512 19.2091 15.9979 18.8924C16.2891 18.6264 16.4431 18.2549 16.4431 17.818C16.4431 16.5047 16.4431 15.8455 17.7825 14.7979L17.8054 14.78C17.8645 14.734 17.9327 14.6807 18.0078 14.6201C18.1993 14.4656 18.2293 14.1852 18.0748 13.9936C17.9203 13.802 17.6399 13.772 17.4484 13.9265C17.3772 13.984 17.3129 14.0341 17.2572 14.0776L17.2337 14.0959C15.6301 15.3502 15.5521 16.2811 15.5521 17.8182C15.5521 18.0157 15.5521 18.4788 14.4068 18.4788C13.8474 18.4788 13.6771 18.3618 13.5912 18.2597C13.4416 18.0819 13.3688 17.7081 13.3688 17.1172C13.3688 15.057 14.2042 14.0593 15.0186 13.3573C15.1721 13.2271 15.3486 13.0916 15.5356 12.9481C16.4445 12.2502 17.5761 11.3816 17.5761 9.97009C17.5761 8.58536 16.4484 7.69066 14.7032 7.69066C12.8748 7.69066 12.2958 8.54462 11.8728 9.16809C11.5837 9.5945 11.4519 9.76753 11.0893 9.76753C10.6181 9.76753 9.91678 9.47662 9.91678 8.67554C9.91678 8.15529 10.2134 7.3542 11.0463 6.66618C11.6863 6.1377 12.854 5.50735 14.7846 5.50735C17.9043 5.50735 20.0828 7.15393 20.0828 9.51141C20.0828 10.5991 19.6124 11.6895 18.6846 12.7526C18.5225 12.938 18.5417 13.2193 18.7269 13.3811V13.3811Z" fill="black"/>
</svg>
