<svg xmlns="http://www.w3.org/2000/svg" width="45" height="45"><path d="M 0 22.5 C 0 10.074 10.074 0 22.5 0 C 34.926 0 45 10.074 45 22.5 C 45 34.926 34.926 45 22.5 45 C 10.074 45 0 34.926 0 22.5 Z" fill="rgb(18,17,73)"></path><path d="M 23.064 44.993 C 35.23 44.694 45 34.738 45 22.5 C 45 22.145 44.991 21.791 44.974 21.44 L 37.045 13.333 L 36.615 14.595 L 35.16 13.333 L 34.901 14.621 L 34.96 14.996 L 33.298 13.356 L 33.242 17.311 L 34.902 18.39 L 34.926 21.328 L 29.631 16.364 L 29.631 17.876 L 20.315 23.096 L 10.61 13.39 L 9.343 28.131 L 9.889 28.677 L 9.343 31.213 Z" fill="rgb(18,17,73)"></path><path d="M 12.812 22.5 C 12.812 17.237 17.078 12.971 22.341 12.971 C 27.604 12.971 31.87 17.237 31.87 22.5 C 31.87 27.763 27.604 32.029 22.341 32.029 C 17.078 32.029 12.812 27.763 12.812 22.5 Z" fill="rgb(255,198,27)"></path><path d="M 31.869 22.5 C 31.869 17.291 27.689 13.061 22.5 12.975 L 22.5 32.025 C 27.689 31.939 31.869 27.709 31.869 22.5 Z" fill="rgb(234,162,47)"></path><path d="M 15.988 22.5 C 15.988 18.992 18.832 16.147 22.341 16.147 C 25.849 16.147 28.693 18.992 28.693 22.5 C 28.693 26.008 25.849 28.853 22.341 28.853 C 18.832 28.853 15.988 26.008 15.988 22.5 Z" fill="rgb(255,237,181)"></path><path d="M 28.693 22.5 C 28.693 19.045 25.935 16.236 22.5 16.151 L 22.5 28.849 C 25.935 28.764 28.693 25.955 28.693 22.5 Z" fill="rgb(254,225,135)"></path><path d="M 34.586 18.389 L 35.288 18.389 L 35.288 23.576 L 34.586 23.576 Z" fill="rgb(255,198,27)"></path><path d="M 34.938 31.357 C 35.523 31.357 35.999 30.882 35.999 30.296 L 35.999 23.341 C 35.999 22.755 35.524 22.28 34.938 22.28 C 34.352 22.28 33.877 22.755 33.877 23.341 L 33.877 30.296 C 33.877 30.882 34.352 31.357 34.938 31.357 Z" fill="rgb(255,127,79)"></path><path d="M 37.181 17.308 L 37.181 13.646 C 37.181 13.433 37.021 13.241 36.807 13.23 C 36.699 13.224 36.593 13.263 36.515 13.338 C 36.436 13.412 36.392 13.516 36.392 13.624 L 36.392 16.65 C 36.392 16.736 36.358 16.817 36.298 16.877 C 36.237 16.938 36.156 16.971 36.07 16.971 L 35.616 16.97 C 35.439 16.97 35.296 16.826 35.296 16.65 L 35.296 13.646 C 35.296 13.433 35.136 13.241 34.923 13.23 C 34.814 13.224 34.709 13.263 34.63 13.338 C 34.551 13.412 34.507 13.516 34.507 13.624 L 34.507 16.649 C 34.507 16.826 34.364 16.97 34.187 16.97 C 34.044 16.971 33.876 16.971 33.732 16.971 C 33.647 16.971 33.565 16.938 33.505 16.877 C 33.445 16.817 33.411 16.735 33.411 16.65 L 33.411 13.646 C 33.411 13.433 33.251 13.241 33.038 13.23 C 32.93 13.224 32.824 13.263 32.745 13.338 C 32.667 13.412 32.622 13.516 32.622 13.624 L 32.622 17.308 C 32.622 18.267 33.4 19.045 34.359 19.045 L 35.444 19.045 C 36.403 19.045 37.181 18.267 37.181 17.308 Z" fill="rgb(255,255,255)"></path><path d="M 9.429 18.314 L 10.132 18.314 L 10.132 23.511 L 9.429 23.511 Z" fill="rgb(255,198,27)"></path><path d="M 7.181 17.014 C 7.181 15.578 8.344 13.115 9.78 13.115 C 11.215 13.115 12.378 15.578 12.378 17.014 C 12.378 18.449 11.215 19.612 9.78 19.612 C 8.344 19.612 7.181 18.449 7.181 17.014 Z" fill="rgb(255,255,255)"></path><path d="M 9.78 31.307 C 10.367 31.307 10.843 30.831 10.843 30.244 L 10.843 23.274 C 10.843 22.687 10.367 22.211 9.78 22.211 C 9.192 22.211 8.716 22.687 8.716 23.274 L 8.716 30.244 C 8.716 30.831 9.192 31.307 9.78 31.307 Z" fill="rgb(255,127,79)"></path></svg>